{"glyphs":{"0":{"ha":1085,"x_min":0,"x_max":949,"o":"m 0 509 q 139 844 0 705 q 475 983 278 983 q 810 844 671 983 q 949 509 949 705 l 949 475 q 810 139 949 278 q 475 0 671 0 q 139 139 278 0 q 0 475 0 278 l 0 509 m 746 509 q 667 701 746 621 q 475 780 587 780 q 283 701 362 780 q 203 509 203 621 l 203 475 q 283 283 203 362 q 475 203 362 203 q 667 283 587 203 q 746 475 746 362 l 746 509 z "},"1":{"ha":441,"x_min":0,"x_max":305,"o":"m 305 983 l 305 -136 l 271 -136 l 102 34 l 102 780 l 0 780 l 0 983 l 305 983 z "},"2":{"ha":882,"x_min":0,"x_max":746,"o":"m 305 390 l 305 389 q 296 390 301 390 q 231 362 258 390 q 203 297 203 335 l 203 203 l 746 203 l 746 170 l 576 0 l 0 0 l 0 297 q 87 507 0 420 q 296 593 174 593 l 441 593 l 441 594 q 450 593 445 593 q 515 621 488 593 q 543 687 543 648 q 515 752 543 725 q 450 780 488 780 q 441 779 445 780 l 441 780 l 170 780 l 0 949 l 0 983 l 450 983 q 659 897 572 983 q 746 687 746 810 q 659 477 746 564 q 450 390 572 390 l 305 390 z "},"3":{"ha":882,"x_min":0,"x_max":747,"o":"m 170 780 l 1 949 l 0 983 l 450 983 q 660 897 573 983 q 747 687 747 810 q 674 492 747 574 q 747 297 747 410 q 660 87 747 174 q 450 0 573 0 l 170 0 l 1 170 l 1 203 l 441 203 l 441 204 q 450 203 446 203 q 516 231 488 203 q 543 297 543 258 q 516 362 543 335 q 450 390 488 390 q 441 389 446 390 l 441 390 l 238 390 l 238 424 l 408 593 l 441 593 l 441 594 q 450 593 446 593 q 516 621 488 593 q 543 687 543 648 q 516 752 543 725 q 450 780 488 780 q 441 779 446 780 l 441 780 l 170 780 z "},"4":{"ha":882,"x_min":0,"x_max":746,"o":"m 203 983 l 203 407 l 543 407 l 543 1051 l 576 1051 l 746 882 l 746 0 l 543 0 l 543 203 l 0 203 l 0 983 l 203 983 z "},"5":{"ha":882,"x_min":0,"x_max":746,"o":"m 0 390 l 0 983 l 576 983 l 746 814 l 746 780 l 203 780 l 203 593 l 450 593 q 659 507 572 593 q 746 297 746 420 q 659 87 746 174 q 450 0 572 0 l 170 0 l 0 170 l 0 203 l 441 203 l 441 204 q 450 203 445 203 q 515 231 488 203 q 543 297 543 258 q 515 362 543 335 q 450 390 488 390 q 441 389 445 390 l 441 390 l 0 390 z "},"6":{"ha":916,"x_min":0,"x_max":780,"o":"m 475 203 l 475 204 q 484 203 479 203 q 549 231 522 203 q 576 297 576 258 q 549 362 576 335 q 484 390 522 390 q 475 389 479 390 l 475 390 l 237 390 l 237 424 l 407 593 l 484 593 q 693 507 606 593 q 780 297 780 420 q 693 87 780 174 q 484 0 606 0 l 288 0 q 87 87 170 3 q 0 297 0 174 l 0 509 q 139 844 0 705 q 475 983 278 983 l 576 983 l 746 814 l 746 780 l 475 780 q 283 701 362 780 q 203 509 203 621 l 203 297 q 231 231 203 258 q 288 204 255 207 l 288 203 l 475 203 z "},"7":{"ha":882,"x_min":0,"x_max":746,"o":"m 305 0 l 102 0 l 543 780 l 170 780 l 1 949 l 0 983 l 576 983 l 746 814 l 746 780 l 305 0 z "},"8":{"ha":882,"x_min":0,"x_max":746,"o":"m 305 390 l 305 389 q 296 390 301 390 q 231 362 258 390 q 203 297 203 335 q 231 231 203 258 q 296 203 258 203 q 305 204 301 203 l 305 203 l 338 203 l 338 201 l 339 203 l 407 203 l 408 201 l 408 203 l 441 203 l 441 204 q 450 203 445 203 q 515 231 488 203 q 543 297 543 258 q 515 362 543 335 q 450 390 488 390 q 441 389 445 390 l 441 390 l 305 390 m 441 593 l 441 594 q 450 593 445 593 q 515 621 488 593 q 543 687 543 648 q 515 752 543 725 q 450 780 488 780 q 441 779 445 780 l 441 780 l 305 780 l 305 779 q 296 780 301 780 q 231 752 258 780 q 203 687 203 725 q 231 621 203 648 q 296 593 258 593 q 305 594 301 593 l 305 593 l 441 593 m 338 1 l 338 0 l 296 0 q 87 87 174 0 q 0 297 0 174 q 73 492 0 410 q 0 687 0 574 q 87 897 0 810 q 296 983 174 983 l 338 983 l 338 981 l 339 983 l 407 983 l 408 983 l 408 983 l 450 983 q 659 897 572 983 q 746 687 746 810 q 673 492 746 574 q 746 297 746 410 q 659 87 746 174 q 450 0 572 0 l 408 0 l 408 1 l 407 0 l 339 0 l 338 1 z "},"9":{"ha":916,"x_min":0,"x_max":780,"o":"m 305 780 l 305 779 q 296 780 301 780 q 231 752 258 780 q 203 686 203 725 q 231 621 203 648 q 296 593 258 593 q 305 594 301 593 l 305 593 l 543 593 l 543 559 l 373 390 l 296 390 q 87 477 174 390 q 0 686 0 564 q 87 897 0 810 q 296 983 174 983 l 492 983 q 693 897 610 980 q 780 686 780 810 l 780 475 q 641 139 780 278 q 305 0 502 0 l 203 0 l 34 170 l 34 203 l 305 203 q 497 283 418 203 q 576 475 576 362 l 576 686 q 549 752 576 725 q 492 779 525 777 l 492 780 l 305 780 z "}," ":{"ha":760,"x_min":0,"x_max":0,"o":""},"!":{"ha":339,"x_min":0,"x_max":203,"o":"m 0 0 l 0 203 l 203 203 l 203 0 l 0 0 m 203 271 l 170 271 l 0 441 l 0 983 l 203 983 l 203 271 z "},"\"":{"ha":610,"x_min":0,"x_max":475,"o":"m 203 814 l 34 644 l 0 644 l 0 983 l 203 983 l 203 814 m 475 814 l 305 644 l 271 644 l 271 983 l 475 983 l 475 814 z "},"#":{"ha":1153,"x_min":0,"x_max":1017,"o":"m 576 305 l 441 305 l 441 68 l 407 68 l 237 237 l 237 305 l 170 305 l 0 475 l 0 509 l 237 509 l 237 576 l 170 576 l 0 747 l 0 781 l 237 781 l 237 916 l 441 916 l 441 781 l 576 780 l 576 916 l 780 916 l 780 780 l 1017 780 l 1017 746 l 848 576 l 780 576 l 780 509 l 1017 509 l 1017 475 l 848 305 l 780 305 l 780 68 l 746 68 l 576 237 l 576 305 m 441 509 l 576 509 l 576 576 l 441 576 l 441 509 z "},"$":{"ha":882,"x_min":0,"x_max":746,"o":"m 475 1 l 475 -68 l 271 -68 l 271 0 l 170 0 l 0 170 l 0 203 l 441 203 l 441 204 q 450 203 445 203 q 515 231 488 203 q 543 297 543 258 q 515 362 543 335 q 450 390 488 390 q 441 389 445 390 l 441 390 l 296 390 q 87 477 174 390 q 0 687 0 564 q 87 897 0 810 q 271 983 165 975 l 271 1051 l 475 1051 l 475 983 l 576 983 l 746 814 l 746 780 l 305 780 l 305 779 q 296 780 301 780 q 231 752 258 780 q 203 687 203 725 q 231 621 203 648 q 296 593 258 593 q 305 594 301 593 l 305 593 l 450 593 q 659 507 572 593 q 746 297 746 420 q 659 87 746 174 q 475 1 581 9 z "},"%":{"ha":949,"x_min":0,"x_max":814,"o":"m 297 593 q 362 621 335 593 q 390 687 390 648 q 362 752 390 725 q 297 780 335 780 q 231 752 258 780 q 203 687 203 725 q 231 621 203 648 q 297 593 258 593 m 517 203 q 583 231 555 203 q 610 297 610 258 q 583 362 610 335 q 517 390 555 390 q 451 362 479 390 q 424 297 424 335 q 451 231 424 258 q 517 203 479 203 m 312 82 l 271 0 l 68 0 l 68 34 l 224 347 q 237 395 228 372 q 87 477 151 412 q 0 687 0 564 q 87 897 0 810 q 297 983 174 983 q 502 901 416 983 l 543 983 l 746 983 l 746 949 l 589 637 q 577 588 585 611 q 727 507 662 572 q 814 297 814 420 q 727 87 814 174 q 517 0 640 0 q 312 82 397 0 z "},"&":{"ha":882,"x_min":0,"x_max":746,"o":"m 509 0 l 509 -68 l 305 -68 l 305 0 l 296 0 q 87 87 174 0 q 0 297 0 174 q 73 492 0 410 q 0 687 0 574 q 87 897 0 810 q 296 983 174 983 l 305 983 l 305 1051 l 509 1051 l 509 983 l 576 983 l 746 814 l 746 780 l 305 780 l 305 779 q 296 780 301 780 q 231 752 258 780 q 203 687 203 725 q 231 621 203 648 q 296 593 258 593 q 305 594 301 593 l 305 593 l 576 593 l 576 559 l 407 390 l 305 390 l 305 389 q 296 390 301 390 q 231 362 258 390 q 203 297 203 335 q 231 231 203 258 q 296 203 258 203 q 305 204 301 203 l 305 203 l 576 203 l 746 34 l 746 0 l 509 0 z "},"'":{"ha":339,"x_min":0,"x_max":203,"o":"m 203 814 l 34 644 l 0 644 l 0 983 l 203 983 l 203 814 z "},"(":{"ha":780,"x_min":0,"x_max":644,"o":"m 475 0 l 644 -170 l 644 -203 l 475 -203 q 139 -64 278 -203 q 0 271 0 75 l 0 712 q 139 1048 0 909 q 475 1187 278 1187 l 644 1017 l 644 983 l 475 983 q 283 904 362 983 q 203 712 203 825 l 203 271 q 283 79 203 159 q 475 0 362 0 z "},")":{"ha":780,"x_min":0,"x_max":644,"o":"m 170 0 q 361 79 282 0 q 441 271 441 159 l 441 712 q 361 904 441 825 q 170 983 282 983 l 0 1153 l 0 1187 l 170 1187 q 505 1048 366 1187 q 644 712 644 909 l 644 271 q 505 -64 644 75 q 170 -203 366 -203 l 0 -34 l 0 0 l 170 0 z "},"*":{"ha":814,"x_min":0,"x_max":678,"o":"m 441 1364 l 475 1390 l 678 1390 l 678 1356 l 463 1187 l 678 1017 l 678 983 l 475 983 l 441 1010 l 441 916 l 237 916 l 237 1010 l 203 983 l 0 983 l 0 1017 l 216 1187 l 0 1356 l 0 1390 l 203 1390 l 237 1364 l 237 1458 l 441 1458 l 441 1364 z "},"+":{"ha":882,"x_min":0,"x_max":746,"o":"m 475 593 l 746 593 l 746 559 l 576 390 l 475 390 l 475 119 l 441 119 l 271 288 l 271 389 l 170 389 l 0 559 l 0 593 l 271 593 l 271 831 l 475 831 l 475 593 z "},",":{"ha":339,"x_min":0,"x_max":203,"o":"m 203 34 l 34 -136 l 0 -136 l 0 203 l 203 203 l 203 34 z "},"-":{"ha":882,"x_min":0,"x_max":746,"o":"m 170 389 l 0 559 l 0 593 l 746 593 l 746 559 l 576 390 l 170 389 z "},".":{"ha":339,"x_min":0,"x_max":203,"o":"m 0 0 l 0 203 l 203 203 l 203 0 l 0 0 z "},"/":{"ha":814,"x_min":0,"x_max":678,"o":"m 475 983 l 678 983 l 678 949 l 203 0 l 0 0 l 0 34 l 475 983 z "},":":{"ha":339,"x_min":0,"x_max":203,"o":"m 0 0 l 0 203 l 203 203 l 203 0 l 0 0 m 0 390 l 0 593 l 203 593 l 203 390 l 0 390 z "},";":{"ha":339,"x_min":0,"x_max":203,"o":"m 0 390 l 0 593 l 203 593 l 203 390 l 0 390 m 203 34 l 34 -136 l 0 -136 l 0 203 l 203 203 l 203 34 z "},"<":{"ha":814,"x_min":0,"x_max":678,"o":"m 0 509 l 475 983 l 678 983 l 678 949 l 220 492 l 678 34 l 678 0 l 475 0 l 0 475 l 0 509 z "},"=":{"ha":882,"x_min":0,"x_max":746,"o":"m 170 237 l 0 408 l 0 441 l 746 441 l 746 408 l 576 238 l 170 237 m 170 509 l 0 679 l 0 713 l 746 713 l 746 679 l 576 509 l 170 509 z "},">":{"ha":814,"x_min":0,"x_max":678,"o":"m 678 475 l 203 0 l 0 0 l 0 34 l 458 492 l 0 949 l 0 983 l 203 983 l 678 509 l 678 475 z "},"?":{"ha":882,"x_min":0,"x_max":746,"o":"m 441 390 l 441 389 q 432 390 437 390 q 367 362 394 390 q 339 297 339 335 l 339 271 l 136 271 l 136 297 q 222 507 136 420 q 432 593 309 593 l 441 593 l 441 594 q 450 593 445 593 q 515 621 488 593 q 543 687 543 648 q 515 752 543 725 q 450 780 488 780 q 441 779 445 780 l 441 780 l 170 780 l 0 949 l 0 983 l 450 983 q 659 897 572 983 q 746 687 746 810 q 659 477 746 564 q 450 390 572 390 l 441 390 m 136 0 l 136 203 l 339 203 l 339 0 l 136 0 z "},"@":{"ha":1085,"x_min":0,"x_max":949,"o":"m 745 525 q 740 567 745 547 q 719 600 733 585 q 653 627 691 627 q 587 600 614 627 q 559 534 559 572 q 587 468 559 496 q 653 441 614 441 q 719 469 691 441 q 745 525 743 492 m 475 0 q 139 139 278 0 q 0 475 0 278 l 0 509 q 139 844 0 705 q 475 983 278 983 q 810 844 671 983 q 936 626 906 749 q 949 534 949 583 l 949 509 l 949 509 q 863 324 940 401 q 653 237 776 237 q 443 324 530 237 q 356 534 356 411 q 443 744 356 657 q 486 780 463 764 l 475 780 q 283 701 362 780 q 203 509 203 621 l 203 475 q 283 283 203 362 q 475 203 362 203 l 882 203 l 882 170 l 712 0 l 475 0 z "},"A":{"ha":882,"x_min":0,"x_max":746,"o":"m 203 203 l 203 -136 l 170 -136 l 0 34 l 0 509 q 139 844 0 705 q 475 983 278 983 l 746 983 l 746 0 l 543 0 l 543 203 l 203 203 m 543 407 l 543 780 l 475 780 q 283 701 362 780 q 203 509 203 621 l 203 407 l 543 407 z "},"B":{"ha":882,"x_min":0,"x_max":746,"o":"m 203 203 l 441 203 l 441 204 q 450 203 445 203 q 515 231 488 203 q 543 297 543 258 q 515 362 543 335 q 450 390 488 390 q 441 389 445 390 l 441 390 l 237 390 l 237 424 l 407 593 l 441 593 l 441 594 q 450 593 445 593 q 515 621 488 593 q 543 687 543 648 q 515 752 543 725 q 450 780 488 780 q 441 779 445 780 l 441 780 l 203 780 l 203 203 m 0 0 l 0 983 l 450 983 q 659 897 572 983 q 746 687 746 810 q 673 492 746 574 q 746 297 746 410 q 659 87 746 174 q 450 0 572 0 l 0 0 z "},"C":{"ha":882,"x_min":0,"x_max":746,"o":"m 475 203 l 576 203 l 746 34 l 746 0 l 475 0 q 139 139 278 0 q 0 475 0 278 l 0 509 q 139 844 0 705 q 475 983 278 983 l 576 983 l 746 814 l 746 780 l 475 780 q 283 701 362 780 q 203 509 203 621 l 203 475 q 283 283 203 362 q 475 203 362 203 z "},"D":{"ha":882,"x_min":0,"x_max":746,"o":"m 271 983 q 607 844 468 983 q 746 509 746 705 l 746 475 q 607 139 746 278 q 271 0 468 0 l 0 0 l 0 983 l 271 983 m 203 203 l 271 203 q 463 283 384 203 q 543 475 543 362 l 543 509 q 463 701 543 621 q 271 780 384 780 l 203 780 l 203 203 z "},"E":{"ha":882,"x_min":0,"x_max":746,"o":"m 216 390 q 283 283 235 330 q 475 203 362 203 l 576 203 l 746 34 l 746 0 l 475 0 q 139 139 278 0 q 0 475 0 278 l 0 509 q 139 844 0 705 q 475 983 278 983 l 576 983 l 746 814 l 746 780 l 475 780 q 283 701 362 780 q 216 593 235 653 l 746 593 l 746 559 l 576 390 l 216 390 z "},"F":{"ha":882,"x_min":0,"x_max":746,"o":"m 204 389 l 203 -136 l 170 -136 l 0 34 l 0 509 q 139 844 0 705 q 475 983 278 983 l 576 983 l 746 814 l 746 780 l 475 780 q 283 701 362 780 q 216 593 235 653 l 746 593 l 746 559 l 576 390 l 204 389 z "},"G":{"ha":882,"x_min":0,"x_max":746,"o":"m 475 0 q 139 139 278 0 q 0 475 0 278 l 0 509 q 139 844 0 705 q 475 983 278 983 l 576 983 l 746 814 l 746 780 l 475 780 q 283 701 362 780 q 203 509 203 621 l 203 475 q 283 283 203 362 q 475 203 362 203 l 543 203 l 543 390 l 509 390 l 339 559 l 339 593 l 746 593 l 746 0 l 475 0 z "},"H":{"ha":814,"x_min":0,"x_max":678,"o":"m 678 882 l 678 0 l 475 0 l 475 543 l 203 441 l 203 -136 l 170 -136 l 0 34 l 0 983 l 203 983 l 203 644 l 475 746 l 475 1051 l 509 1051 l 678 882 z "},"I":{"ha":339,"x_min":0,"x_max":203,"o":"m 203 -136 l 170 -136 l 0 34 l 0 983 l 203 983 l 203 -136 z "},"J":{"ha":814,"x_min":0,"x_max":678,"o":"m 203 203 q 395 283 316 203 q 475 475 475 362 l 475 1051 l 509 1051 l 678 882 l 678 475 q 539 139 678 278 q 203 0 400 0 l 0 0 l 0 34 l 170 203 l 203 203 z "},"K":{"ha":882,"x_min":0,"x_max":746,"o":"m 203 -136 l 170 -136 l 0 34 l 0 983 l 203 983 l 203 -136 m 746 687 q 673 492 746 574 q 746 297 746 410 l 746 0 l 543 0 l 543 288 l 542 288 q 543 297 543 292 q 515 362 543 335 q 450 390 488 390 q 441 389 445 390 l 441 390 l 237 390 l 237 424 l 407 593 l 441 593 l 441 594 q 450 593 445 593 q 515 621 488 593 q 543 687 543 648 l 543 1051 l 576 1051 l 746 882 l 746 687 z "},"L":{"ha":746,"x_min":0,"x_max":610,"o":"m 203 203 l 441 203 l 610 34 l 610 0 l 0 0 l 0 983 l 203 983 l 203 203 z "},"M":{"ha":1085,"x_min":0,"x_max":949,"o":"m 949 0 l 746 0 l 746 509 q 667 701 746 621 q 576 761 626 741 l 576 237 l 543 237 l 373 407 l 373 761 q 283 701 323 741 q 203 509 203 621 l 203 -136 l 170 -136 l 0 34 l 0 509 q 139 844 0 705 q 475 983 278 983 q 810 844 671 983 q 949 509 949 705 l 949 0 z "},"N":{"ha":882,"x_min":0,"x_max":746,"o":"m 543 509 q 463 701 543 621 q 271 780 384 780 l 203 780 l 203 0 l 0 0 l 0 983 l 271 983 q 607 844 468 983 q 746 509 746 705 l 746 0 l 543 0 l 543 509 z "},"O":{"ha":1085,"x_min":0,"x_max":949,"o":"m 0 509 q 139 844 0 705 q 475 983 278 983 q 810 844 671 983 q 949 509 949 705 l 949 475 q 810 139 949 278 q 475 0 671 0 q 139 139 278 0 q 0 475 0 278 l 0 509 m 746 509 q 667 701 746 621 q 475 780 587 780 q 283 701 362 780 q 203 509 203 621 l 203 475 q 283 283 203 362 q 475 203 362 203 q 667 283 587 203 q 746 475 746 362 l 746 509 z "},"P":{"ha":882,"x_min":0,"x_max":746,"o":"m 441 593 l 441 594 q 450 593 445 593 q 515 621 488 593 q 543 687 543 648 q 515 752 543 725 q 450 780 488 780 q 441 779 445 780 l 441 780 l 203 780 l 203 -136 l 170 -136 l 0 34 l 0 983 l 450 983 q 659 897 572 983 q 746 687 746 810 q 659 477 746 564 q 450 390 572 390 l 237 390 l 237 424 l 407 593 l 441 593 z "},"Q":{"ha":1085,"x_min":0,"x_max":983,"o":"m 690 309 q 746 475 746 380 l 746 509 q 667 701 746 621 q 475 780 587 780 q 283 701 362 780 q 203 509 203 621 l 203 475 q 283 283 203 362 q 475 203 362 203 q 551 214 515 203 l 271 475 l 271 509 l 475 509 l 690 309 m 713 62 q 475 0 607 0 q 139 139 278 0 q 0 475 0 278 l 0 509 q 139 844 0 705 q 475 983 278 983 q 810 844 671 983 q 949 509 949 705 l 949 475 q 838 170 949 299 l 983 34 l 983 0 l 780 0 l 713 62 z "},"R":{"ha":882,"x_min":0,"x_max":746,"o":"m 441 593 l 441 594 q 450 593 445 593 q 515 621 488 593 q 543 687 543 648 q 515 752 543 725 q 450 780 488 780 q 441 779 445 780 l 441 780 l 203 780 l 203 -136 l 170 -136 l 0 34 l 0 983 l 450 983 q 659 897 572 983 q 746 687 746 810 q 673 492 746 574 q 746 297 746 410 l 746 0 l 543 0 l 543 288 l 542 288 q 543 297 543 292 q 515 362 543 335 q 450 390 488 390 q 441 389 445 390 l 441 390 l 237 390 l 237 424 l 407 593 l 441 593 z "},"S":{"ha":882,"x_min":0,"x_max":746,"o":"m 296 390 q 87 477 174 390 q 0 687 0 564 q 87 897 0 810 q 296 983 174 983 l 576 983 l 746 814 l 746 780 l 305 780 l 305 779 q 296 780 301 780 q 231 752 258 780 q 203 687 203 725 q 231 621 203 648 q 296 593 258 593 q 305 594 301 593 l 305 593 l 450 593 q 659 507 572 593 q 746 297 746 420 q 659 87 746 174 q 450 0 572 0 l 170 0 l 0 170 l 0 203 l 441 203 l 441 204 q 450 203 445 203 q 515 231 488 203 q 543 297 543 258 q 515 362 543 335 q 450 390 488 390 q 441 389 445 390 l 441 390 l 296 390 z "},"T":{"ha":882,"x_min":0,"x_max":746,"o":"m 1 949 l 0 983 l 746 983 l 746 949 l 576 780 l 475 780 l 475 -136 l 441 -136 l 271 34 l 271 780 l 170 780 l 1 949 z "},"U":{"ha":1085,"x_min":0,"x_max":949,"o":"m 746 475 l 746 1051 l 780 1051 l 949 882 l 949 475 q 810 139 949 278 q 475 0 671 0 q 139 139 278 0 q 0 475 0 278 l 0 983 l 203 983 l 203 475 q 283 283 203 362 q 475 203 362 203 q 667 283 587 203 q 746 475 746 362 z "},"V":{"ha":882,"x_min":0,"x_max":746,"o":"m 203 475 q 283 283 203 362 q 475 203 362 203 l 543 203 l 543 983 l 746 983 l 746 0 l 475 0 q 139 139 278 0 q 0 475 0 278 l 0 983 l 203 983 l 203 475 z "},"W":{"ha":1085,"x_min":0,"x_max":949,"o":"m 949 475 q 810 139 949 278 q 475 0 671 0 q 139 139 278 0 q 0 475 0 278 l 0 983 l 203 983 l 203 475 q 283 283 203 362 q 373 222 323 242 l 373 746 l 407 746 l 576 576 l 576 222 q 667 283 626 242 q 746 475 746 362 l 746 1051 l 780 1051 l 949 882 l 949 475 z "},"X":{"ha":882,"x_min":0,"x_max":746,"o":"m 296 390 q 231 362 258 390 q 203 297 203 335 q 204 288 203 292 l 203 288 l 203 -136 l 170 -136 l 0 34 l 0 297 q 73 492 0 410 q 0 687 0 574 l 0 983 l 203 983 l 203 687 q 231 621 203 648 q 296 593 258 593 q 305 594 301 593 l 305 593 l 441 593 l 441 594 q 450 593 445 593 q 515 621 488 593 q 543 687 543 648 l 543 1051 l 576 1051 l 746 882 l 746 687 q 673 492 746 574 q 746 297 746 410 l 746 0 l 543 0 l 543 288 l 542 288 q 543 297 543 292 q 515 362 543 335 q 450 390 488 390 q 441 389 445 390 l 441 390 l 305 390 l 305 389 q 296 390 301 390 z "},"Y":{"ha":1085,"x_min":0,"x_max":949,"o":"m 475 543 q 667 622 587 543 q 746 814 746 701 l 746 1051 l 780 1051 l 949 882 l 949 814 q 810 478 949 617 q 576 349 709 376 l 576 -136 l 543 -136 l 373 34 l 373 349 q 139 478 241 376 q 0 814 0 617 l 0 983 l 203 983 l 203 814 q 283 622 203 701 q 475 543 362 543 z "},"Z":{"ha":882,"x_min":0,"x_max":746,"o":"m 237 203 l 746 203 l 746 170 l 576 0 l 170 0 l 0 170 l 0 203 l 509 780 l 170 780 l 1 949 l 0 983 l 576 983 l 746 814 l 746 780 l 237 203 z "},"[":{"ha":780,"x_min":0,"x_max":644,"o":"m 475 0 l 644 -170 l 644 -203 l 0 -203 l 0 1187 l 475 1187 l 644 1017 l 644 983 l 203 983 l 203 0 l 475 0 z "},"\\":{"ha":814,"x_min":0,"x_max":678,"o":"m 678 34 l 678 0 l 475 0 l 0 949 l 0 983 l 203 983 l 678 34 z "},"]":{"ha":780,"x_min":0,"x_max":644,"o":"m 441 0 l 441 983 l 170 983 l 0 1153 l 0 1187 l 644 1187 l 644 -203 l 170 -203 l 0 -34 l 0 0 l 441 0 z "},"^":{"ha":814,"x_min":0,"x_max":678,"o":"m 339 1264 l 203 1051 l 0 1051 l 0 1085 l 237 1458 l 441 1458 l 678 1085 l 678 1051 l 475 1051 l 339 1264 z "},"_":{"ha":746,"x_min":0,"x_max":746,"o":"m 0 -68 l 746 -68 l 746 -271 l 0 -271 l 0 -68 z "},"`":{"ha":814,"x_min":0,"x_max":678,"o":"m 678 1085 l 678 1051 l 475 1051 l 0 1424 l 0 1458 l 203 1458 l 678 1085 z "},"a":{"ha":705,"x_min":0,"x_max":597,"o":"m 163 163 l 163 -109 l 136 -109 l 0 27 l 0 407 q 111 675 0 564 q 380 787 222 787 l 597 787 l 597 0 l 434 0 l 434 163 l 163 163 m 434 326 l 434 624 l 380 624 q 226 561 290 624 q 163 407 163 497 l 163 326 l 434 326 z "},"b":{"ha":705,"x_min":0,"x_max":597,"o":"m 163 163 l 353 163 l 353 163 q 359 163 356 163 q 412 185 390 163 q 434 237 434 207 q 412 290 434 268 q 359 312 390 312 q 353 311 356 312 l 353 312 l 190 312 l 190 339 l 326 475 l 353 475 l 353 475 q 359 475 356 475 q 412 497 390 475 q 434 549 434 519 q 412 602 434 580 q 359 624 390 624 q 353 623 356 624 l 353 624 l 163 624 l 163 163 m 0 0 l 0 787 l 359 787 q 527 717 458 787 q 597 549 597 648 q 538 393 597 459 q 597 237 597 328 q 527 70 597 139 q 359 0 458 0 l 0 0 z "},"c":{"ha":705,"x_min":0,"x_max":597,"o":"m 380 163 l 461 163 l 597 27 l 597 0 l 380 0 q 111 111 222 0 q 0 380 0 222 l 0 407 q 111 675 0 564 q 380 787 222 787 l 461 787 l 597 651 l 597 624 l 380 624 q 226 561 290 624 q 163 407 163 497 l 163 380 q 226 226 163 290 q 380 163 290 163 z "},"d":{"ha":705,"x_min":0,"x_max":597,"o":"m 217 787 q 486 675 374 787 q 597 407 597 564 l 597 380 q 486 111 597 222 q 217 0 374 0 l 0 0 l 0 787 l 217 787 m 163 163 l 217 163 q 371 226 307 163 q 434 380 434 290 l 434 407 q 371 561 434 497 q 217 624 307 624 l 163 624 l 163 163 z "},"e":{"ha":705,"x_min":0,"x_max":597,"o":"m 173 312 q 227 227 189 264 q 380 163 290 163 l 461 163 l 597 27 l 597 0 l 380 0 q 111 111 222 0 q 0 380 0 222 l 0 407 q 111 675 0 564 q 380 787 222 787 l 461 787 l 597 651 l 597 624 l 380 624 q 227 560 290 624 q 173 475 189 522 l 597 475 l 597 448 l 461 312 l 173 312 z "},"f":{"ha":705,"x_min":0,"x_max":597,"o":"m 163 311 l 163 -109 l 136 -109 l 0 27 l 0 407 q 111 675 0 564 q 380 787 222 787 l 461 787 l 597 651 l 597 624 l 380 624 q 227 560 290 624 q 173 475 189 522 l 597 475 l 597 448 l 461 312 l 163 311 z "},"g":{"ha":705,"x_min":0,"x_max":597,"o":"m 380 0 q 111 111 222 0 q 0 380 0 222 l 0 407 q 111 675 0 564 q 380 787 222 787 l 461 787 l 597 651 l 597 624 l 380 624 q 226 561 290 624 q 163 407 163 497 l 163 380 q 226 226 163 290 q 380 163 290 163 l 434 163 l 434 312 l 407 312 l 271 448 l 271 475 l 597 475 l 597 0 l 380 0 z "},"h":{"ha":651,"x_min":0,"x_max":543,"o":"m 543 705 l 543 0 l 380 0 l 380 434 l 163 353 l 163 -109 l 136 -109 l 0 27 l 0 787 l 163 787 l 163 515 l 380 597 l 380 841 l 407 841 l 543 705 z "},"i":{"ha":271,"x_min":0,"x_max":163,"o":"m 163 -109 l 136 -109 l 0 27 l 0 787 l 163 787 l 163 -109 z "},"j":{"ha":651,"x_min":0,"x_max":543,"o":"m 163 163 q 316 226 253 163 q 380 380 380 290 l 380 841 l 407 841 l 543 705 l 543 380 q 431 111 543 222 q 163 0 320 0 l 0 0 l 0 27 l 136 163 l 163 163 z "},"k":{"ha":705,"x_min":0,"x_max":597,"o":"m 163 -109 l 136 -109 l 0 27 l 0 787 l 163 787 l 163 -109 m 597 549 q 538 393 597 459 q 597 237 597 328 l 597 0 l 434 0 l 434 231 l 433 231 q 434 237 434 234 q 412 290 434 268 q 359 312 390 312 q 353 311 356 312 l 353 312 l 190 312 l 190 339 l 326 475 l 353 475 l 353 475 q 359 475 356 475 q 412 497 390 475 q 434 549 434 519 l 434 841 l 461 841 l 597 705 l 597 549 z "},"l":{"ha":597,"x_min":0,"x_max":488,"o":"m 163 163 l 353 163 l 488 27 l 488 0 l 0 0 l 0 787 l 163 787 l 163 163 z "},"m":{"ha":868,"x_min":0,"x_max":760,"o":"m 760 0 l 597 0 l 597 407 q 533 560 597 497 q 461 609 500 593 l 461 190 l 434 190 l 298 326 l 298 609 q 227 560 259 593 q 163 407 163 497 l 163 -109 l 136 -109 l 0 27 l 0 407 q 111 675 0 564 q 380 787 222 787 q 648 675 537 787 q 760 407 760 564 l 760 0 z "},"n":{"ha":705,"x_min":0,"x_max":597,"o":"m 434 407 q 371 561 434 497 q 217 624 307 624 l 163 624 l 163 0 l 0 0 l 0 787 l 217 787 q 486 675 374 787 q 597 407 597 564 l 597 0 l 434 0 l 434 407 z "},"o":{"ha":868,"x_min":0,"x_max":760,"o":"m 0 407 q 111 675 0 564 q 380 787 222 787 q 648 675 537 787 q 760 407 760 564 l 760 380 q 648 111 760 222 q 380 0 537 0 q 111 111 222 0 q 0 380 0 222 l 0 407 m 597 407 q 533 561 597 497 q 380 624 470 624 q 226 561 290 624 q 163 407 163 497 l 163 380 q 226 226 163 290 q 380 163 290 163 q 533 226 470 163 q 597 380 597 290 l 597 407 z "},"p":{"ha":705,"x_min":0,"x_max":597,"o":"m 353 475 l 353 475 q 359 475 356 475 q 412 497 390 475 q 434 549 434 519 q 412 602 434 580 q 359 624 390 624 q 353 623 356 624 l 353 624 l 163 624 l 163 -109 l 136 -109 l 0 27 l 0 787 l 359 787 q 527 717 458 787 q 597 549 597 648 q 527 381 597 451 q 359 312 458 312 l 190 312 l 190 339 l 326 475 l 353 475 z "},"q":{"ha":868,"x_min":0,"x_max":787,"o":"m 552 247 q 597 380 597 304 l 597 407 q 533 561 597 497 q 380 624 470 624 q 226 561 290 624 q 163 407 163 497 l 163 380 q 226 226 163 290 q 380 163 290 163 q 441 171 412 163 l 217 380 l 217 407 l 380 407 l 552 247 m 570 50 q 380 0 486 0 q 111 111 222 0 q 0 380 0 222 l 0 407 q 111 675 0 564 q 380 787 222 787 q 648 675 537 787 q 760 407 760 564 l 760 380 q 671 136 760 239 l 787 27 l 787 0 l 624 0 l 570 50 z "},"r":{"ha":705,"x_min":0,"x_max":597,"o":"m 353 475 l 353 475 q 359 475 356 475 q 412 497 390 475 q 434 549 434 519 q 412 602 434 580 q 359 624 390 624 q 353 623 356 624 l 353 624 l 163 624 l 163 -109 l 136 -109 l 0 27 l 0 787 l 359 787 q 527 717 458 787 q 597 549 597 648 q 538 393 597 459 q 597 237 597 328 l 597 0 l 434 0 l 434 231 l 433 231 q 434 237 434 234 q 412 290 434 268 q 359 312 390 312 q 353 311 356 312 l 353 312 l 190 312 l 190 339 l 326 475 l 353 475 z "},"s":{"ha":705,"x_min":0,"x_max":597,"o":"m 237 312 q 70 381 139 312 q 0 549 0 451 q 70 717 0 648 q 237 787 139 787 l 461 787 l 597 651 l 597 624 l 244 624 l 244 623 q 237 624 241 624 q 185 602 207 624 q 163 549 163 580 q 185 497 163 519 q 237 475 207 475 q 244 475 241 475 l 244 475 l 359 475 q 527 405 458 475 q 597 237 597 336 q 527 70 597 139 q 359 0 458 0 l 136 0 l 0 136 l 0 163 l 353 163 l 353 163 q 359 163 356 163 q 412 185 390 163 q 434 237 434 207 q 412 290 434 268 q 359 312 390 312 q 353 311 356 312 l 353 312 l 237 312 z "},"t":{"ha":705,"x_min":0,"x_max":597,"o":"m 1 760 l 0 787 l 597 787 l 597 760 l 461 624 l 380 624 l 380 -109 l 353 -109 l 217 27 l 217 624 l 136 624 l 1 760 z "},"u":{"ha":868,"x_min":0,"x_max":760,"o":"m 597 380 l 597 841 l 624 841 l 760 705 l 760 380 q 648 111 760 222 q 380 0 537 0 q 111 111 222 0 q 0 380 0 222 l 0 787 l 163 787 l 163 380 q 226 226 163 290 q 380 163 290 163 q 533 226 470 163 q 597 380 597 290 z "},"v":{"ha":705,"x_min":0,"x_max":597,"o":"m 163 380 q 226 226 163 290 q 380 163 290 163 l 434 163 l 434 787 l 597 787 l 597 0 l 380 0 q 111 111 222 0 q 0 380 0 222 l 0 787 l 163 787 l 163 380 z "},"w":{"ha":868,"x_min":0,"x_max":760,"o":"m 760 380 q 648 111 760 222 q 380 0 537 0 q 111 111 222 0 q 0 380 0 222 l 0 787 l 163 787 l 163 380 q 227 227 163 290 q 298 178 259 194 l 298 597 l 326 597 l 461 461 l 461 178 q 533 227 500 194 q 597 380 597 290 l 597 841 l 624 841 l 760 705 l 760 380 z "},"x":{"ha":705,"x_min":0,"x_max":597,"o":"m 237 312 q 185 290 207 312 q 163 237 163 268 q 163 231 163 234 l 163 231 l 163 -109 l 136 -109 l 0 27 l 0 237 q 58 393 0 328 q 0 549 0 459 l 0 787 l 163 787 l 163 549 q 185 497 163 519 q 237 475 207 475 q 244 475 241 475 l 244 475 l 353 475 l 353 475 q 359 475 356 475 q 412 497 390 475 q 434 549 434 519 l 434 841 l 461 841 l 597 705 l 597 549 q 538 393 597 459 q 597 237 597 328 l 597 0 l 434 0 l 434 231 l 433 231 q 434 237 434 234 q 412 290 434 268 q 359 312 390 312 q 353 311 356 312 l 353 312 l 244 312 l 244 311 q 237 312 241 312 z "},"y":{"ha":868,"x_min":0,"x_max":760,"o":"m 380 434 q 533 497 470 434 q 597 651 597 561 l 597 841 l 624 841 l 760 705 l 760 651 q 648 382 760 494 q 461 279 567 301 l 461 -109 l 434 -109 l 298 27 l 298 279 q 111 382 193 301 q 0 651 0 494 l 0 787 l 163 787 l 163 651 q 226 497 163 561 q 380 434 290 434 z "},"z":{"ha":705,"x_min":0,"x_max":597,"o":"m 190 163 l 597 163 l 597 136 l 461 0 l 136 0 l 0 136 l 0 163 l 407 624 l 136 624 l 1 760 l 0 787 l 461 787 l 597 651 l 597 624 l 190 163 z "},"{":{"ha":1085,"x_min":0,"x_max":983,"o":"m 678 661 l 671 627 l 875 763 l 882 797 l 678 661 m 119 712 l 125 678 l 329 543 l 322 576 l 119 712 m 102 797 l 109 763 l 312 627 l 305 661 l 102 797 m 661 576 l 654 543 l 858 678 l 865 712 l 661 576 m 899 576 l 865 220 l 712 85 l 709 409 l 773 448 l 780 492 l 899 576 m 176 899 l 210 787 q 374 675 374 684 q 407 475 376 671 l 214 509 l 68 610 l 0 916 l 176 899 m 492 606 l 593 668 l 560 458 l 559 237 l 424 237 l 423 458 l 390 668 l 492 606 m 203 492 l 210 448 l 274 409 l 271 85 l 119 220 l 85 576 l 203 492 m 576 220 l 577 458 l 695 407 l 695 68 l 627 17 l 581 153 l 403 153 l 356 17 l 288 68 l 288 407 l 406 458 l 407 220 l 576 220 m 492 136 l 570 136 l 610 0 l 373 0 l 414 136 l 492 136 m 526 949 q 787 899 661 949 l 763 800 l 494 623 l 492 624 l 490 623 l 220 800 l 197 899 q 458 949 322 949 l 526 949 m 492 746 l 594 831 l 389 831 l 492 746 m 983 916 l 916 610 l 770 509 l 576 475 q 610 675 608 671 q 773 787 610 684 l 807 899 l 983 916 z "},"|":{"ha":339,"x_min":0,"x_max":203,"o":"m 0 -203 l 0 1187 l 203 1187 l 203 -203 l 0 -203 z "},"}":{"ha":949,"x_min":0,"x_max":848,"o":"m 519 468 l 492 400 l 610 458 l 634 502 l 519 468 m 214 502 l 237 458 l 356 400 l 329 468 l 214 502 m 705 153 l 475 44 l 763 515 l 705 153 m 475 797 l 593 949 l 511 581 l 424 475 l 337 581 l 254 949 l 373 797 l 475 797 m 424 593 l 457 712 l 391 712 l 424 593 m 424 455 l 498 532 l 644 578 l 650 604 l 526 570 l 543 637 l 678 677 l 683 702 l 551 664 l 572 753 l 702 797 l 848 983 l 770 559 l 424 0 l 78 559 l 0 983 l 146 797 l 275 753 l 297 664 l 165 702 l 170 677 l 305 637 l 321 570 l 197 604 l 203 578 l 349 532 l 424 455 m 85 515 l 373 44 l 143 153 l 85 515 z "},"~":{"ha":814,"x_min":0,"x_max":678,"o":"m 373 1356 q 475 1424 475 1356 l 678 1424 q 591 1240 678 1326 q 373 1153 505 1153 l 305 1153 q 203 1085 203 1153 l 0 1085 q 87 1270 0 1183 q 305 1356 174 1356 l 373 1356 z "},"¡":{"ha":339,"x_min":0,"x_max":203,"o":"m 203 983 l 203 780 l 0 780 l 0 983 l 203 983 m 0 712 l 34 712 l 203 543 l 203 0 l 0 0 l 0 712 z "},"¢":{"ha":705,"x_min":0,"x_max":597,"o":"m 298 779 l 298 841 l 461 841 l 461 787 l 597 651 l 597 624 l 380 624 q 226 561 290 624 q 163 407 163 497 l 163 380 q 226 226 163 290 q 380 163 290 163 l 461 163 l 597 27 l 597 0 l 461 0 l 461 -54 l 298 -54 l 298 8 q 111 111 193 30 q 0 380 0 222 l 0 407 q 111 675 0 564 q 298 779 193 757 z "},"£":{"ha":1119,"x_min":0,"x_max":848,"o":"m 210 593 q 342 844 235 736 q 678 983 481 983 l 848 814 l 848 780 l 678 780 q 486 701 566 780 q 420 593 439 653 l 848 593 l 848 559 l 678 390 l 407 390 l 407 203 l 678 203 l 848 34 l 848 0 l 0 0 l 0 34 l 170 203 l 203 203 l 203 390 l 0 390 l 0 424 l 153 576 l 170 593 l 210 593 z "},"¤":{"ha":882,"x_min":0,"x_max":746,"o":"m 373 407 q 421 432 401 407 q 441 492 441 456 q 421 552 441 527 q 373 576 401 576 q 325 552 345 576 q 305 492 305 527 q 325 432 305 456 q 373 407 345 407 m 203 262 l 203 -136 l 170 -136 l 0 34 l 0 297 q 73 492 0 410 q 0 687 0 574 l 0 983 l 203 983 l 203 721 q 373 780 276 780 q 543 721 470 780 l 543 1051 l 576 1051 l 746 882 l 746 687 q 673 492 746 574 q 746 297 746 410 l 746 0 l 543 0 l 543 262 q 373 203 470 203 q 203 262 276 203 z "},"¥":{"ha":1085,"x_min":0,"x_max":949,"o":"m 576 34 l 576 -136 l 543 -136 l 373 34 l 203 34 l 203 237 l 373 237 l 373 305 l 203 305 l 203 423 q 139 478 170 448 q 0 814 0 617 l 0 983 l 203 983 l 203 814 q 283 622 203 701 q 475 543 362 543 q 667 622 587 543 q 746 814 746 701 l 746 1051 l 780 1051 l 949 882 l 949 814 q 810 478 949 617 q 746 423 780 448 l 746 305 l 576 305 l 576 237 l 746 237 l 746 34 l 576 34 z "},"¦":{"ha":339,"x_min":0,"x_max":203,"o":"m 203 390 l 203 -203 l 0 -203 l 0 389 l 203 390 m 0 593 l 0 1187 l 203 1187 l 203 593 l 0 593 z "},"§":{"ha":882,"x_min":0,"x_max":746,"o":"m 373 407 q 421 432 401 407 q 441 492 441 456 q 421 552 441 527 q 373 576 401 576 q 325 552 345 576 q 305 492 305 527 q 325 432 305 456 q 373 407 345 407 m 644 521 q 659 507 652 514 q 746 297 746 420 l 746 102 q 659 -117 746 -30 q 450 -203 572 -203 l 170 -203 l 0 -34 l 0 0 l 441 0 l 441 1 q 450 0 445 0 q 515 27 488 0 q 543 102 543 55 l 543 262 q 373 203 470 203 q 181 283 260 203 q 102 463 106 358 q 87 477 94 469 q 0 687 0 564 l 0 882 q 87 1100 0 1013 q 296 1187 174 1187 l 576 1187 l 746 1017 l 746 983 l 305 983 l 305 983 q 296 983 301 983 q 231 956 258 983 q 203 882 203 928 l 203 721 q 373 780 276 780 q 565 701 486 780 q 644 521 640 625 z "},"¨":{"ha":746,"x_min":0,"x_max":610,"o":"m 407 1119 l 407 1322 l 610 1322 l 610 1119 l 407 1119 m 0 1119 l 0 1322 l 203 1322 l 203 1119 l 0 1119 z "},"©":{"ha":848,"x_min":0,"x_max":712,"o":"m 373 593 l 424 593 l 509 509 l 509 492 l 373 492 q 205 561 275 492 q 136 729 136 631 l 136 746 q 205 914 136 844 q 373 983 275 983 l 424 983 l 509 899 l 509 882 l 373 882 q 277 842 317 882 q 237 746 237 802 l 237 729 q 277 633 237 673 q 373 593 317 593 m 356 1085 q 152 983 237 1085 q 68 738 68 882 q 152 492 68 593 q 356 390 237 390 q 560 492 475 390 q 644 738 644 593 q 560 983 644 882 q 356 1085 475 1085 m 356 1153 q 608 1031 503 1153 q 712 738 712 909 q 608 444 712 566 q 356 322 503 322 q 104 444 208 322 q 0 738 0 566 q 104 1031 0 909 q 356 1153 208 1153 z "},"ª":{"ha":1119,"x_min":0,"x_max":1017,"o":"m 136 0 q 0 136 0 0 l 0 882 q 136 1017 0 1017 l 882 1017 q 1017 882 1017 1017 l 1017 136 q 882 0 1017 0 l 136 0 m 882 17 q 1000 136 1000 17 l 1000 882 q 882 1000 1000 1000 l 136 1000 q 17 882 18 1000 l 17 136 q 136 17 18 17 l 882 17 z "},"«":{"ha":1153,"x_min":0,"x_max":1017,"o":"m 0 509 l 475 983 l 678 983 l 678 949 l 220 492 l 678 34 l 678 0 l 475 0 l 0 475 l 0 509 m 339 509 l 814 983 l 1017 983 l 1017 949 l 559 492 l 1017 34 l 1017 0 l 814 0 l 339 475 l 339 509 z "},"¬":{"ha":1119,"x_min":0,"x_max":1017,"o":"m 136 0 q 0 136 0 0 l 0 882 q 136 1017 0 1017 l 882 1017 q 1017 882 1017 1017 l 1017 136 q 882 0 1017 0 l 136 0 m 882 17 q 1000 136 1000 17 l 1000 882 q 882 1000 1000 1000 l 136 1000 q 17 882 18 1000 l 17 136 q 136 17 18 17 l 882 17 z "},"®":{"ha":848,"x_min":0,"x_max":712,"o":"m 356 1085 q 152 983 237 1085 q 68 738 68 882 q 152 492 68 593 q 356 390 237 390 q 560 492 475 390 q 644 738 644 593 q 560 983 644 882 q 356 1085 475 1085 m 356 1153 q 608 1031 503 1153 q 712 738 712 909 q 608 444 712 566 q 356 322 503 322 q 104 444 208 322 q 0 738 0 566 q 104 1031 0 909 q 356 1153 208 1153 m 395 789 q 427 802 414 789 q 441 836 441 816 q 427 868 441 854 q 395 882 414 882 l 271 882 l 271 424 l 254 424 l 170 509 l 170 983 l 395 983 q 499 940 456 983 q 543 836 543 897 q 507 738 543 779 q 543 640 543 696 l 543 492 l 441 492 l 441 640 q 427 673 441 659 q 395 687 414 687 q 390 686 392 687 l 390 687 l 288 687 l 288 704 l 373 789 l 395 789 z "},"¯":{"ha":1119,"x_min":0,"x_max":1017,"o":"m 136 0 q 0 136 0 0 l 0 882 q 136 1017 0 1017 l 882 1017 q 1017 882 1017 1017 l 1017 136 q 882 0 1017 0 l 136 0 m 882 17 q 1000 136 1000 17 l 1000 882 q 882 1000 1000 1000 l 136 1000 q 17 882 18 1000 l 17 136 q 136 17 18 17 l 882 17 z "},"°":{"ha":457,"x_min":41,"x_max":418,"o":"m 230 930 q 130 889 172 930 q 88 789 88 848 q 130 689 88 730 q 230 648 171 648 q 330 689 289 648 q 370 789 370 730 q 329 889 370 848 q 230 930 288 930 m 230 978 q 363 923 308 978 q 418 789 418 867 q 362 656 418 712 q 229 601 307 601 q 95 656 149 601 q 41 789 41 711 q 96 923 41 868 q 230 978 151 978 z "},"±":{"ha":1119,"x_min":0,"x_max":1017,"o":"m 136 0 q 0 136 0 0 l 0 882 q 136 1017 0 1017 l 882 1017 q 1017 882 1017 1017 l 1017 136 q 882 0 1017 0 l 136 0 m 882 17 q 1000 136 1000 17 l 1000 882 q 882 1000 1000 1000 l 136 1000 q 17 882 18 1000 l 17 136 q 136 17 18 17 l 882 17 z "},"²":{"ha":1119,"x_min":0,"x_max":1017,"o":"m 136 0 q 0 136 0 0 l 0 882 q 136 1017 0 1017 l 882 1017 q 1017 882 1017 1017 l 1017 136 q 882 0 1017 0 l 136 0 m 882 17 q 1000 136 1000 17 l 1000 882 q 882 1000 1000 1000 l 136 1000 q 17 882 18 1000 l 17 136 q 136 17 18 17 l 882 17 z "},"³":{"ha":1119,"x_min":0,"x_max":1017,"o":"m 136 0 q 0 136 0 0 l 0 882 q 136 1017 0 1017 l 882 1017 q 1017 882 1017 1017 l 1017 136 q 882 0 1017 0 l 136 0 m 882 17 q 1000 136 1000 17 l 1000 882 q 882 1000 1000 1000 l 136 1000 q 17 882 18 1000 l 17 136 q 136 17 18 17 l 882 17 z "},"´":{"ha":814,"x_min":0,"x_max":678,"o":"m 475 1458 l 678 1458 l 678 1424 l 203 1051 l 0 1051 l 0 1085 l 475 1458 z "},"µ":{"ha":1085,"x_min":0,"x_max":949,"o":"m 203 473 q 283 283 204 361 q 475 203 362 203 q 667 283 587 203 q 746 475 746 362 l 746 1051 l 780 1051 l 949 882 l 949 475 q 810 139 949 278 q 475 0 671 0 q 203 84 321 0 l 203 -136 l 170 -136 l 0 34 l 0 983 l 203 983 l 203 473 z "},"¶":{"ha":694,"x_min":63,"x_max":630,"o":"m 630 973 l 630 926 l 544 926 l 544 0 l 488 0 l 488 926 l 376 926 l 376 0 l 319 0 l 319 500 q 132 570 201 506 q 63 736 63 634 q 136 908 63 843 q 330 973 209 973 l 630 973 z "},"·":{"ha":339,"x_min":0,"x_max":203,"o":"m 0 390 l 0 593 l 203 593 l 203 390 l 0 390 z "},"¸":{"ha":882,"x_min":67,"x_max":610,"o":"m 610 136 l 610 26 q 524 -184 610 -98 q 314 -271 437 -271 l 237 -271 l 67 -102 l 67 -68 l 314 -68 q 379 -40 352 -68 q 407 26 407 -13 l 406 136 l 610 136 z "},"¹":{"ha":1119,"x_min":0,"x_max":1017,"o":"m 136 0 q 0 136 0 0 l 0 882 q 136 1017 0 1017 l 882 1017 q 1017 882 1017 1017 l 1017 136 q 882 0 1017 0 l 136 0 m 882 17 q 1000 136 1000 17 l 1000 882 q 882 1000 1000 1000 l 136 1000 q 17 882 18 1000 l 17 136 q 136 17 18 17 l 882 17 z "},"º":{"ha":1119,"x_min":0,"x_max":1017,"o":"m 136 0 q 0 136 0 0 l 0 882 q 136 1017 0 1017 l 882 1017 q 1017 882 1017 1017 l 1017 136 q 882 0 1017 0 l 136 0 m 882 17 q 1000 136 1000 17 l 1000 882 q 882 1000 1000 1000 l 136 1000 q 17 882 18 1000 l 17 136 q 136 17 18 17 l 882 17 z "},"»":{"ha":1153,"x_min":0,"x_max":1017,"o":"m 1017 475 l 543 0 l 339 0 l 339 34 l 797 492 l 339 949 l 339 983 l 543 983 l 1017 509 l 1017 475 m 678 475 l 203 0 l 0 0 l 0 34 l 458 492 l 0 949 l 0 983 l 203 983 l 678 509 l 678 475 z "},"¼":{"ha":1119,"x_min":0,"x_max":1017,"o":"m 136 0 q 0 136 0 0 l 0 882 q 136 1017 0 1017 l 882 1017 q 1017 882 1017 1017 l 1017 136 q 882 0 1017 0 l 136 0 m 882 17 q 1000 136 1000 17 l 1000 882 q 882 1000 1000 1000 l 136 1000 q 17 882 18 1000 l 17 136 q 136 17 18 17 l 882 17 z "},"½":{"ha":1119,"x_min":0,"x_max":1017,"o":"m 136 0 q 0 136 0 0 l 0 882 q 136 1017 0 1017 l 882 1017 q 1017 882 1017 1017 l 1017 136 q 882 0 1017 0 l 136 0 m 882 17 q 1000 136 1000 17 l 1000 882 q 882 1000 1000 1000 l 136 1000 q 17 882 18 1000 l 17 136 q 136 17 18 17 l 882 17 z "},"¾":{"ha":1119,"x_min":0,"x_max":1017,"o":"m 136 0 q 0 136 0 0 l 0 882 q 136 1017 0 1017 l 882 1017 q 1017 882 1017 1017 l 1017 136 q 882 0 1017 0 l 136 0 m 882 17 q 1000 136 1000 17 l 1000 882 q 882 1000 1000 1000 l 136 1000 q 17 882 18 1000 l 17 136 q 136 17 18 17 l 882 17 z "},"¿":{"ha":882,"x_min":0,"x_max":746,"o":"m 305 593 l 305 594 q 314 593 309 593 q 379 621 352 593 q 407 686 407 648 l 407 712 l 610 712 l 610 686 q 524 477 610 564 q 314 390 437 390 l 305 390 l 305 389 q 296 390 301 390 q 231 362 258 390 q 203 296 203 335 q 231 231 203 258 q 296 203 258 203 q 305 204 301 203 l 305 203 l 576 203 l 746 34 l 746 0 l 296 0 q 87 87 174 0 q 0 296 0 174 q 87 507 0 420 q 296 593 174 593 l 305 593 m 610 983 l 610 780 l 407 780 l 407 983 l 610 983 z "},"À":{"ha":882,"x_min":0,"x_max":746,"o":"m 203 203 l 203 -136 l 170 -136 l 0 34 l 0 509 q 139 844 0 705 q 475 983 278 983 l 746 983 l 746 0 l 543 0 l 543 203 l 203 203 m 543 407 l 543 780 l 475 780 q 283 701 362 780 q 203 509 203 621 l 203 407 l 543 407 m 712 1085 l 712 1051 l 509 1051 l 34 1424 l 34 1458 l 237 1458 l 712 1085 z "},"Á":{"ha":882,"x_min":0,"x_max":746,"o":"m 203 203 l 203 -136 l 170 -136 l 0 34 l 0 509 q 139 844 0 705 q 475 983 278 983 l 746 983 l 746 0 l 543 0 l 543 203 l 203 203 m 543 407 l 543 780 l 475 780 q 283 701 362 780 q 203 509 203 621 l 203 407 l 543 407 m 509 1458 l 712 1458 l 712 1424 l 237 1051 l 34 1051 l 34 1085 l 509 1458 z "},"Â":{"ha":882,"x_min":0,"x_max":746,"o":"m 203 203 l 203 -136 l 170 -136 l 0 34 l 0 509 q 139 844 0 705 q 475 983 278 983 l 746 983 l 746 0 l 543 0 l 543 203 l 203 203 m 543 407 l 543 780 l 475 780 q 283 701 362 780 q 203 509 203 621 l 203 407 l 543 407 m 373 1264 l 237 1051 l 34 1051 l 34 1085 l 271 1458 l 475 1458 l 712 1085 l 712 1051 l 509 1051 l 373 1264 z "},"Ã":{"ha":882,"x_min":0,"x_max":746,"o":"m 203 203 l 203 -136 l 170 -136 l 0 34 l 0 509 q 139 844 0 705 q 475 983 278 983 l 746 983 l 746 0 l 543 0 l 543 203 l 203 203 m 543 407 l 543 780 l 475 780 q 283 701 362 780 q 203 509 203 621 l 203 407 l 543 407 m 407 1356 q 509 1424 509 1356 l 712 1424 q 625 1240 712 1326 q 407 1153 538 1153 l 339 1153 q 237 1085 237 1153 l 34 1085 q 121 1270 34 1183 q 339 1356 208 1356 l 407 1356 z "},"Ä":{"ha":882,"x_min":0,"x_max":746,"o":"m 203 203 l 203 -136 l 170 -136 l 0 34 l 0 509 q 139 844 0 705 q 475 983 278 983 l 746 983 l 746 0 l 543 0 l 543 203 l 203 203 m 543 407 l 543 780 l 475 780 q 283 701 362 780 q 203 509 203 621 l 203 407 l 543 407 m 475 1119 l 475 1322 l 678 1322 l 678 1119 l 475 1119 m 68 1119 l 68 1322 l 271 1322 l 271 1119 l 68 1119 z "},"Å":{"ha":882,"x_min":0,"x_max":746,"o":"m 203 203 l 203 -136 l 170 -136 l 0 34 l 0 509 q 139 844 0 705 q 475 983 278 983 l 746 983 l 746 0 l 543 0 l 543 203 l 203 203 m 543 407 l 543 780 l 475 780 q 283 701 362 780 q 203 509 203 621 l 203 407 l 543 407 m 373 1458 q 565 1398 486 1458 q 644 1255 644 1339 q 565 1111 644 1171 q 373 1051 486 1051 q 181 1111 260 1051 q 102 1255 102 1171 q 181 1398 102 1339 q 373 1458 260 1458 m 373 1289 q 325 1279 345 1289 q 305 1255 305 1269 q 325 1231 305 1240 q 373 1221 345 1221 q 421 1231 401 1221 q 441 1255 441 1240 q 421 1279 441 1269 q 373 1289 401 1289 z "},"Æ":{"ha":1424,"x_min":0,"x_max":1289,"o":"m 543 407 l 543 780 l 475 780 q 283 701 362 780 q 203 509 203 621 l 203 407 l 543 407 m 746 84 l 746 0 l 543 0 l 543 203 l 203 203 l 203 -136 l 170 -136 l 0 34 l 0 509 q 139 844 0 705 q 475 983 278 983 l 746 983 l 746 899 q 1017 983 864 983 l 1119 983 l 1289 814 l 1289 780 l 1017 780 q 825 701 905 780 q 759 593 778 653 l 1289 593 l 1289 559 l 1119 390 l 759 390 q 825 283 778 330 q 1017 203 905 203 l 1119 203 l 1289 34 l 1289 0 l 1017 0 q 746 84 864 0 z "},"Ç":{"ha":882,"x_min":0,"x_max":746,"o":"m 405 5 q 139 139 252 26 q 0 475 0 278 l 0 509 q 139 844 0 705 q 475 983 278 983 l 576 983 l 746 814 l 746 780 l 475 780 q 283 701 362 780 q 203 509 203 621 l 203 475 q 283 283 203 362 q 475 203 362 203 l 576 203 l 746 34 l 746 0 l 610 0 q 524 -184 601 -107 q 314 -271 437 -271 l 237 -271 l 67 -102 l 67 -68 l 314 -68 q 380 -40 352 -68 q 405 5 399 -21 z "},"È":{"ha":882,"x_min":0,"x_max":746,"o":"m 216 390 q 283 283 235 330 q 475 203 362 203 l 576 203 l 746 34 l 746 0 l 475 0 q 139 139 278 0 q 0 475 0 278 l 0 509 q 139 844 0 705 q 475 983 278 983 l 576 983 l 746 814 l 746 780 l 475 780 q 283 701 362 780 q 216 593 235 653 l 746 593 l 746 559 l 576 390 l 216 390 m 712 1085 l 712 1051 l 509 1051 l 34 1424 l 34 1458 l 237 1458 l 712 1085 z "},"É":{"ha":882,"x_min":0,"x_max":746,"o":"m 216 390 q 283 283 235 330 q 475 203 362 203 l 576 203 l 746 34 l 746 0 l 475 0 q 139 139 278 0 q 0 475 0 278 l 0 509 q 139 844 0 705 q 475 983 278 983 l 576 983 l 746 814 l 746 780 l 475 780 q 283 701 362 780 q 216 593 235 653 l 746 593 l 746 559 l 576 390 l 216 390 m 475 1458 l 678 1458 l 678 1424 l 203 1051 l 0 1051 l 0 1085 l 475 1458 z "},"Ê":{"ha":882,"x_min":0,"x_max":746,"o":"m 216 390 q 283 283 235 330 q 475 203 362 203 l 576 203 l 746 34 l 746 0 l 475 0 q 139 139 278 0 q 0 475 0 278 l 0 509 q 139 844 0 705 q 475 983 278 983 l 576 983 l 746 814 l 746 780 l 475 780 q 283 701 362 780 q 216 593 235 653 l 746 593 l 746 559 l 576 390 l 216 390 m 373 1264 l 237 1051 l 34 1051 l 34 1085 l 271 1458 l 475 1458 l 712 1085 l 712 1051 l 509 1051 l 373 1264 z "},"Ë":{"ha":882,"x_min":0,"x_max":746,"o":"m 216 390 q 283 283 235 330 q 475 203 362 203 l 576 203 l 746 34 l 746 0 l 475 0 q 139 139 278 0 q 0 475 0 278 l 0 509 q 139 844 0 705 q 475 983 278 983 l 576 983 l 746 814 l 746 780 l 475 780 q 283 701 362 780 q 216 593 235 653 l 746 593 l 746 559 l 576 390 l 216 390 m 475 1119 l 475 1322 l 678 1322 l 678 1119 l 475 1119 m 68 1119 l 68 1322 l 271 1322 l 271 1119 l 68 1119 z "},"Ì":{"ha":339,"x_min":-237,"x_max":441,"o":"m 203 -136 l 170 -136 l 0 34 l 0 983 l 203 983 l 203 -136 m 441 1085 l 441 1051 l 237 1051 l -237 1424 l -237 1458 l -34 1458 l 441 1085 z "},"Í":{"ha":339,"x_min":-237,"x_max":441,"o":"m 203 -136 l 170 -136 l 0 34 l 0 983 l 203 983 l 203 -136 m 237 1458 l 441 1458 l 441 1424 l -34 1051 l -237 1051 l -237 1085 l 237 1458 z "},"Î":{"ha":339,"x_min":-237,"x_max":441,"o":"m 203 -136 l 170 -136 l 0 34 l 0 983 l 203 983 l 203 -136 m 102 1264 l -34 1051 l -237 1051 l -237 1085 l 0 1458 l 203 1458 l 441 1085 l 441 1051 l 237 1051 l 102 1264 z "},"Ï":{"ha":339,"x_min":-203,"x_max":407,"o":"m 203 -136 l 170 -136 l 0 34 l 0 983 l 203 983 l 203 -136 m 203 1119 l 203 1322 l 407 1322 l 407 1119 l 203 1119 m -203 1119 l -203 1322 l 0 1322 l 0 1119 l -203 1119 z "},"Ð":{"ha":1085,"x_min":0,"x_max":949,"o":"m 733 593 q 667 701 714 653 q 475 780 587 780 l 407 780 l 407 593 l 733 593 m 203 593 l 203 983 l 475 983 q 810 844 671 983 q 949 509 949 705 l 949 475 q 810 139 949 278 q 475 0 671 0 l 203 0 l 203 389 l 170 389 l 0 559 l 0 593 l 203 593 m 407 390 l 407 203 l 475 203 q 667 283 587 203 q 746 475 746 362 l 746 509 q 743 556 746 533 l 576 390 l 407 390 z "},"Ñ":{"ha":882,"x_min":0,"x_max":746,"o":"m 543 509 q 463 701 543 621 q 271 780 384 780 l 203 780 l 203 0 l 0 0 l 0 983 l 271 983 q 607 844 468 983 q 746 509 746 705 l 746 0 l 543 0 l 543 509 m 407 1356 q 509 1424 509 1356 l 712 1424 q 625 1240 712 1326 q 407 1153 538 1153 l 339 1153 q 237 1085 237 1153 l 34 1085 q 121 1270 34 1183 q 339 1356 208 1356 l 407 1356 z "},"Ò":{"ha":1085,"x_min":0,"x_max":949,"o":"m 0 509 q 139 844 0 705 q 475 983 278 983 q 810 844 671 983 q 949 509 949 705 l 949 475 q 810 139 949 278 q 475 0 671 0 q 139 139 278 0 q 0 475 0 278 l 0 509 m 746 509 q 667 701 746 621 q 475 780 587 780 q 283 701 362 780 q 203 509 203 621 l 203 475 q 283 283 203 362 q 475 203 362 203 q 667 283 587 203 q 746 475 746 362 l 746 509 m 814 1085 l 814 1051 l 610 1051 l 136 1424 l 136 1458 l 339 1458 l 814 1085 z "},"Ó":{"ha":1085,"x_min":0,"x_max":949,"o":"m 0 509 q 139 844 0 705 q 475 983 278 983 q 810 844 671 983 q 949 509 949 705 l 949 475 q 810 139 949 278 q 475 0 671 0 q 139 139 278 0 q 0 475 0 278 l 0 509 m 746 509 q 667 701 746 621 q 475 780 587 780 q 283 701 362 780 q 203 509 203 621 l 203 475 q 283 283 203 362 q 475 203 362 203 q 667 283 587 203 q 746 475 746 362 l 746 509 m 610 1458 l 814 1458 l 814 1424 l 339 1051 l 136 1051 l 136 1085 l 610 1458 z "},"Ô":{"ha":1085,"x_min":0,"x_max":949,"o":"m 0 509 q 139 844 0 705 q 475 983 278 983 q 810 844 671 983 q 949 509 949 705 l 949 475 q 810 139 949 278 q 475 0 671 0 q 139 139 278 0 q 0 475 0 278 l 0 509 m 746 509 q 667 701 746 621 q 475 780 587 780 q 283 701 362 780 q 203 509 203 621 l 203 475 q 283 283 203 362 q 475 203 362 203 q 667 283 587 203 q 746 475 746 362 l 746 509 m 475 1264 l 339 1051 l 136 1051 l 136 1085 l 373 1458 l 576 1458 l 814 1085 l 814 1051 l 610 1051 l 475 1264 z "},"Õ":{"ha":1085,"x_min":0,"x_max":949,"o":"m 0 509 q 139 844 0 705 q 475 983 278 983 q 810 844 671 983 q 949 509 949 705 l 949 475 q 810 139 949 278 q 475 0 671 0 q 139 139 278 0 q 0 475 0 278 l 0 509 m 746 509 q 667 701 746 621 q 475 780 587 780 q 283 701 362 780 q 203 509 203 621 l 203 475 q 283 283 203 362 q 475 203 362 203 q 667 283 587 203 q 746 475 746 362 l 746 509 m 509 1356 q 610 1424 610 1356 l 814 1424 q 727 1240 814 1326 q 509 1153 640 1153 l 441 1153 q 339 1085 339 1153 l 136 1085 q 222 1270 136 1183 q 441 1356 309 1356 l 509 1356 z "},"Ö":{"ha":1085,"x_min":0,"x_max":949,"o":"m 0 509 q 139 844 0 705 q 475 983 278 983 q 810 844 671 983 q 949 509 949 705 l 949 475 q 810 139 949 278 q 475 0 671 0 q 139 139 278 0 q 0 475 0 278 l 0 509 m 746 509 q 667 701 746 621 q 475 780 587 780 q 283 701 362 780 q 203 509 203 621 l 203 475 q 283 283 203 362 q 475 203 362 203 q 667 283 587 203 q 746 475 746 362 l 746 509 m 576 1119 l 576 1322 l 780 1322 l 780 1119 l 576 1119 m 170 1119 l 170 1322 l 373 1322 l 373 1119 l 170 1119 z "},"×":{"ha":882,"x_min":0,"x_max":746,"o":"m 271 492 l 0 916 l 203 916 l 373 650 l 543 916 l 746 916 l 475 492 l 746 68 l 543 68 l 373 333 l 203 68 l 0 68 l 271 492 z "},"Ø":{"ha":1085,"x_min":0,"x_max":949,"o":"m 577 761 q 475 780 530 780 q 283 701 362 780 q 203 509 203 621 l 203 475 q 248 326 203 391 l 577 761 m 702 658 l 372 222 q 475 203 420 203 q 667 283 587 203 q 746 475 746 362 l 746 509 q 702 658 746 592 m 120 159 q 0 475 0 292 l 0 509 q 139 844 0 705 q 475 983 278 983 q 703 926 601 983 l 746 983 l 949 983 l 829 825 q 949 509 949 692 l 949 475 q 810 139 949 278 q 475 0 671 0 q 247 57 349 0 l 203 0 l 0 0 l 120 159 z "},"Ù":{"ha":1085,"x_min":0,"x_max":949,"o":"m 780 1051 l 949 882 l 949 475 q 810 139 949 278 q 475 0 671 0 q 139 139 278 0 q 0 475 0 278 l 0 983 l 203 983 l 203 475 q 283 283 203 362 q 475 203 362 203 q 667 283 587 203 q 746 475 746 362 l 746 1051 l 610 1051 l 136 1424 l 136 1458 l 339 1458 l 814 1085 l 814 1051 l 780 1051 z "},"Ú":{"ha":1085,"x_min":0,"x_max":949,"o":"m 746 475 l 746 1051 l 780 1051 l 949 882 l 949 475 q 810 139 949 278 q 475 0 671 0 q 139 139 278 0 q 0 475 0 278 l 0 983 l 203 983 l 203 475 q 283 283 203 362 q 475 203 362 203 q 667 283 587 203 q 746 475 746 362 m 610 1458 l 814 1458 l 814 1424 l 339 1051 l 136 1051 l 136 1085 l 610 1458 z "},"Û":{"ha":1085,"x_min":0,"x_max":949,"o":"m 780 1051 l 949 882 l 949 475 q 810 139 949 278 q 475 0 671 0 q 139 139 278 0 q 0 475 0 278 l 0 983 l 203 983 l 203 475 q 283 283 203 362 q 475 203 362 203 q 667 283 587 203 q 746 475 746 362 l 746 1051 l 610 1051 l 475 1264 l 339 1051 l 136 1051 l 136 1085 l 373 1458 l 576 1458 l 814 1085 l 814 1051 l 780 1051 z "},"Ü":{"ha":1085,"x_min":0,"x_max":949,"o":"m 746 475 l 746 1051 l 780 1051 l 949 882 l 949 475 q 810 139 949 278 q 475 0 671 0 q 139 139 278 0 q 0 475 0 278 l 0 983 l 203 983 l 203 475 q 283 283 203 362 q 475 203 362 203 q 667 283 587 203 q 746 475 746 362 m 576 1119 l 576 1322 l 780 1322 l 780 1119 l 576 1119 m 170 1119 l 170 1322 l 373 1322 l 373 1119 l 170 1119 z "},"Ý":{"ha":1085,"x_min":0,"x_max":949,"o":"m 475 543 q 667 622 587 543 q 746 814 746 701 l 746 1051 l 780 1051 l 949 882 l 949 814 q 810 478 949 617 q 576 349 709 376 l 576 -136 l 543 -136 l 373 34 l 373 349 q 139 478 241 376 q 0 814 0 617 l 0 983 l 203 983 l 203 814 q 283 622 203 701 q 475 543 362 543 z "},"Þ":{"ha":882,"x_min":0,"x_max":746,"o":"m 203 780 l 450 780 q 659 693 572 780 q 746 484 746 606 q 659 273 746 360 q 450 186 572 186 l 237 186 l 237 220 l 407 390 l 441 390 l 441 391 q 450 390 445 390 q 515 417 488 390 q 543 484 543 445 q 515 549 543 522 q 450 576 488 576 q 441 576 445 576 l 441 576 l 203 576 l 203 -136 l 170 -136 l 0 34 l 0 983 l 203 983 l 203 780 z "},"ß":{"ha":882,"x_min":0,"x_max":746,"o":"m 441 593 l 441 594 q 450 593 445 593 q 515 621 488 593 q 543 687 543 648 q 515 752 543 725 q 450 780 488 780 q 441 779 445 780 l 441 780 l 305 780 l 305 779 q 296 780 301 780 q 231 752 258 780 q 203 687 203 725 l 203 -135 l 170 -136 l 0 34 l 0 687 q 87 897 0 810 q 296 983 174 983 l 338 983 l 338 981 l 339 983 l 407 983 l 408 983 l 408 983 l 450 983 q 659 897 572 983 q 746 687 746 810 q 673 492 746 574 q 746 297 746 410 q 659 87 746 174 q 450 0 572 0 l 408 0 l 408 1 l 407 0 l 339 0 l 338 1 l 338 0 l 305 0 l 305 203 l 338 203 l 338 201 l 339 203 l 407 203 l 408 201 l 408 203 l 441 203 l 441 204 q 450 203 445 203 q 515 231 488 203 q 543 297 543 258 q 515 362 543 335 q 450 390 488 390 q 441 389 445 390 l 441 390 l 305 390 l 305 593 l 441 593 z "},"à":{"ha":705,"x_min":0,"x_max":597,"o":"m 163 163 l 163 -109 l 136 -109 l 0 27 l 0 407 q 111 675 0 564 q 380 787 222 787 l 597 787 l 597 0 l 434 0 l 434 163 l 163 163 m 434 326 l 434 624 l 380 624 q 226 561 290 624 q 163 407 163 497 l 163 326 l 434 326 m 570 868 l 570 841 l 407 841 l 27 1139 l 27 1166 l 190 1166 l 570 868 z "},"á":{"ha":705,"x_min":0,"x_max":597,"o":"m 163 163 l 163 -109 l 136 -109 l 0 27 l 0 407 q 111 675 0 564 q 380 787 222 787 l 597 787 l 597 0 l 434 0 l 434 163 l 163 163 m 434 326 l 434 624 l 380 624 q 226 561 290 624 q 163 407 163 497 l 163 326 l 434 326 m 407 1166 l 570 1166 l 570 1139 l 190 841 l 27 841 l 27 868 l 407 1166 z "},"â":{"ha":705,"x_min":0,"x_max":597,"o":"m 163 163 l 163 -109 l 136 -109 l 0 27 l 0 407 q 111 675 0 564 q 380 787 222 787 l 597 787 l 597 0 l 434 0 l 434 163 l 163 163 m 434 326 l 434 624 l 380 624 q 226 561 290 624 q 163 407 163 497 l 163 326 l 434 326 m 298 1011 l 190 841 l 27 841 l 27 868 l 217 1166 l 380 1166 l 570 868 l 570 841 l 407 841 l 298 1011 z "},"ã":{"ha":705,"x_min":0,"x_max":597,"o":"m 163 163 l 163 -109 l 136 -109 l 0 27 l 0 407 q 111 675 0 564 q 380 787 222 787 l 597 787 l 597 0 l 434 0 l 434 163 l 163 163 m 434 326 l 434 624 l 380 624 q 226 561 290 624 q 163 407 163 497 l 163 326 l 434 326 m 326 1085 q 407 1139 407 1085 l 570 1139 q 500 992 570 1061 q 326 922 431 922 l 271 922 q 190 868 190 922 l 27 868 q 97 1016 27 946 q 271 1085 166 1085 l 326 1085 z "},"ä":{"ha":705,"x_min":0,"x_max":597,"o":"m 163 163 l 163 -109 l 136 -109 l 0 27 l 0 407 q 111 675 0 564 q 380 787 222 787 l 597 787 l 597 0 l 434 0 l 434 163 l 163 163 m 434 326 l 434 624 l 380 624 q 226 561 290 624 q 163 407 163 497 l 163 326 l 434 326 m 380 895 l 380 1058 l 543 1058 l 543 895 l 380 895 m 54 895 l 54 1058 l 217 1058 l 217 895 l 54 895 z "},"å":{"ha":705,"x_min":0,"x_max":597,"o":"m 163 163 l 163 -109 l 136 -109 l 0 27 l 0 407 q 111 675 0 564 q 380 787 222 787 l 597 787 l 597 0 l 434 0 l 434 163 l 163 163 m 434 326 l 434 624 l 380 624 q 226 561 290 624 q 163 407 163 497 l 163 326 l 434 326 m 298 1166 q 452 1119 389 1166 q 515 1004 515 1071 q 452 889 515 937 q 298 841 389 841 q 145 889 208 841 q 81 1004 81 937 q 145 1119 81 1071 q 298 1166 208 1166 m 298 1031 q 260 1023 276 1031 q 244 1004 244 1015 q 260 984 244 992 q 298 977 276 977 q 337 984 321 977 q 353 1004 353 992 q 337 1023 353 1015 q 298 1031 321 1031 z "},"æ":{"ha":1139,"x_min":0,"x_max":1031,"o":"m 434 326 l 434 624 l 380 624 q 226 561 290 624 q 163 407 163 497 l 163 326 l 434 326 m 597 67 l 597 0 l 434 0 l 434 163 l 163 163 l 163 -109 l 136 -109 l 0 27 l 0 407 q 111 675 0 564 q 380 787 222 787 l 597 787 l 597 720 q 814 787 691 787 l 895 787 l 1031 651 l 1031 624 l 814 624 q 661 560 724 624 q 607 475 623 522 l 1031 475 l 1031 448 l 895 312 l 607 312 q 661 227 623 264 q 814 163 724 163 l 895 163 l 1031 27 l 1031 0 l 814 0 q 597 67 691 0 z "},"ç":{"ha":705,"x_min":0,"x_max":597,"o":"m 323 3 q 111 111 202 20 q 0 380 0 222 l 0 407 q 111 675 0 564 q 380 787 222 787 l 461 787 l 597 651 l 597 624 l 380 624 q 226 561 290 624 q 163 407 163 497 l 163 380 q 226 226 163 290 q 380 163 290 163 l 461 163 l 597 27 l 597 0 l 488 0 q 419 -148 481 -85 q 251 -217 349 -217 l 189 -217 l 54 -81 l 54 -54 l 251 -54 q 304 -33 281 -54 q 323 3 319 -16 z "},"è":{"ha":705,"x_min":0,"x_max":597,"o":"m 173 312 q 227 227 189 264 q 380 163 290 163 l 461 163 l 597 27 l 597 0 l 380 0 q 111 111 222 0 q 0 380 0 222 l 0 407 q 111 675 0 564 q 380 787 222 787 l 461 787 l 597 651 l 597 624 l 380 624 q 227 560 290 624 q 173 475 189 522 l 597 475 l 597 448 l 461 312 l 173 312 m 570 868 l 570 841 l 407 841 l 27 1139 l 27 1166 l 190 1166 l 570 868 z "},"é":{"ha":705,"x_min":0,"x_max":597,"o":"m 173 312 q 227 227 189 264 q 380 163 290 163 l 461 163 l 597 27 l 597 0 l 380 0 q 111 111 222 0 q 0 380 0 222 l 0 407 q 111 675 0 564 q 380 787 222 787 l 461 787 l 597 651 l 597 624 l 380 624 q 227 560 290 624 q 173 475 189 522 l 597 475 l 597 448 l 461 312 l 173 312 m 380 1166 l 543 1166 l 543 1139 l 163 841 l 0 841 l 0 868 l 380 1166 z "},"ê":{"ha":705,"x_min":0,"x_max":597,"o":"m 173 312 q 227 227 189 264 q 380 163 290 163 l 461 163 l 597 27 l 597 0 l 380 0 q 111 111 222 0 q 0 380 0 222 l 0 407 q 111 675 0 564 q 380 787 222 787 l 461 787 l 597 651 l 597 624 l 380 624 q 227 560 290 624 q 173 475 189 522 l 597 475 l 597 448 l 461 312 l 173 312 m 298 1011 l 190 841 l 27 841 l 27 868 l 217 1166 l 380 1166 l 570 868 l 570 841 l 407 841 l 298 1011 z "},"ë":{"ha":705,"x_min":0,"x_max":597,"o":"m 173 312 q 227 227 189 264 q 380 163 290 163 l 461 163 l 597 27 l 597 0 l 380 0 q 111 111 222 0 q 0 380 0 222 l 0 407 q 111 675 0 564 q 380 787 222 787 l 461 787 l 597 651 l 597 624 l 380 624 q 227 560 290 624 q 173 475 189 522 l 597 475 l 597 448 l 461 312 l 173 312 m 380 895 l 380 1058 l 543 1058 l 543 895 l 380 895 m 54 895 l 54 1058 l 217 1058 l 217 895 l 54 895 z "},"ì":{"ha":271,"x_min":-190,"x_max":353,"o":"m 163 -109 l 136 -109 l 0 27 l 0 787 l 163 787 l 163 -109 m 353 868 l 353 841 l 190 841 l -190 1139 l -190 1166 l -27 1166 l 353 868 z "},"í":{"ha":271,"x_min":-190,"x_max":353,"o":"m 163 -109 l 136 -109 l 0 27 l 0 787 l 163 787 l 163 -109 m 190 1166 l 353 1166 l 353 1139 l -27 841 l -190 841 l -190 868 l 190 1166 z "},"î":{"ha":271,"x_min":-190,"x_max":353,"o":"m 163 -109 l 136 -109 l 0 27 l 0 787 l 163 787 l 163 -109 m 81 1011 l -27 841 l -190 841 l -190 868 l 0 1166 l 163 1166 l 353 868 l 353 841 l 190 841 l 81 1011 z "},"ï":{"ha":271,"x_min":-163,"x_max":326,"o":"m 163 -109 l 136 -109 l 0 27 l 0 787 l 163 787 l 163 -109 m 163 895 l 163 1058 l 326 1058 l 326 895 l 163 895 m -163 895 l -163 1058 l 0 1058 l 0 895 l -163 895 z "},"ð":{"ha":868,"x_min":0,"x_max":760,"o":"m 587 475 q 533 560 571 522 q 380 624 470 624 l 326 624 l 326 475 l 587 475 m 163 475 l 163 787 l 380 787 q 648 675 537 787 q 760 407 760 564 l 760 380 q 648 111 760 222 q 380 0 537 0 l 163 0 l 163 311 l 136 311 l 0 448 l 0 475 l 163 475 m 326 312 l 326 163 l 380 163 q 533 226 470 163 q 597 380 597 290 l 597 407 q 594 445 597 427 l 461 312 l 326 312 z "},"ñ":{"ha":705,"x_min":0,"x_max":597,"o":"m 434 407 q 371 561 434 497 q 217 624 307 624 l 163 624 l 163 0 l 0 0 l 0 787 l 217 787 q 486 675 374 787 q 597 407 597 564 l 597 0 l 434 0 l 434 407 m 326 1085 q 407 1139 407 1085 l 570 1139 q 500 992 570 1061 q 326 922 431 922 l 271 922 q 190 868 190 922 l 27 868 q 97 1016 27 946 q 271 1085 166 1085 l 326 1085 z "},"ò":{"ha":868,"x_min":0,"x_max":760,"o":"m 0 407 q 111 675 0 564 q 380 787 222 787 q 648 675 537 787 q 760 407 760 564 l 760 380 q 648 111 760 222 q 380 0 537 0 q 111 111 222 0 q 0 380 0 222 l 0 407 m 597 407 q 533 561 597 497 q 380 624 470 624 q 226 561 290 624 q 163 407 163 497 l 163 380 q 226 226 163 290 q 380 163 290 163 q 533 226 470 163 q 597 380 597 290 l 597 407 m 651 868 l 651 841 l 488 841 l 109 1139 l 109 1166 l 271 1166 l 651 868 z "},"ó":{"ha":868,"x_min":0,"x_max":760,"o":"m 0 407 q 111 675 0 564 q 380 787 222 787 q 648 675 537 787 q 760 407 760 564 l 760 380 q 648 111 760 222 q 380 0 537 0 q 111 111 222 0 q 0 380 0 222 l 0 407 m 597 407 q 533 561 597 497 q 380 624 470 624 q 226 561 290 624 q 163 407 163 497 l 163 380 q 226 226 163 290 q 380 163 290 163 q 533 226 470 163 q 597 380 597 290 l 597 407 m 488 1166 l 651 1166 l 651 1139 l 271 841 l 109 841 l 109 868 l 488 1166 z "},"ô":{"ha":868,"x_min":0,"x_max":760,"o":"m 0 407 q 111 675 0 564 q 380 787 222 787 q 648 675 537 787 q 760 407 760 564 l 760 380 q 648 111 760 222 q 380 0 537 0 q 111 111 222 0 q 0 380 0 222 l 0 407 m 597 407 q 533 561 597 497 q 380 624 470 624 q 226 561 290 624 q 163 407 163 497 l 163 380 q 226 226 163 290 q 380 163 290 163 q 533 226 470 163 q 597 380 597 290 l 597 407 m 380 1011 l 271 841 l 109 841 l 109 868 l 298 1166 l 461 1166 l 651 868 l 651 841 l 488 841 l 380 1011 z "},"õ":{"ha":868,"x_min":0,"x_max":760,"o":"m 0 407 q 111 675 0 564 q 380 787 222 787 q 648 675 537 787 q 760 407 760 564 l 760 380 q 648 111 760 222 q 380 0 537 0 q 111 111 222 0 q 0 380 0 222 l 0 407 m 597 407 q 533 561 597 497 q 380 624 470 624 q 226 561 290 624 q 163 407 163 497 l 163 380 q 226 226 163 290 q 380 163 290 163 q 533 226 470 163 q 597 380 597 290 l 597 407 m 407 1085 q 488 1139 488 1085 l 651 1139 q 582 992 651 1061 q 407 922 512 922 l 353 922 q 271 868 271 922 l 109 868 q 178 1016 109 946 q 353 1085 248 1085 l 407 1085 z "},"ö":{"ha":868,"x_min":0,"x_max":760,"o":"m 0 407 q 111 675 0 564 q 380 787 222 787 q 648 675 537 787 q 760 407 760 564 l 760 380 q 648 111 760 222 q 380 0 537 0 q 111 111 222 0 q 0 380 0 222 l 0 407 m 597 407 q 533 561 597 497 q 380 624 470 624 q 226 561 290 624 q 163 407 163 497 l 163 380 q 226 226 163 290 q 380 163 290 163 q 533 226 470 163 q 597 380 597 290 l 597 407 m 461 895 l 461 1058 l 624 1058 l 624 895 l 461 895 m 136 895 l 136 1058 l 298 1058 l 298 895 l 136 895 z "},"÷":{"ha":882,"x_min":0,"x_max":746,"o":"m 170 389 l 0 559 l 0 593 l 746 593 l 746 559 l 576 390 l 170 389 m 271 102 l 271 305 l 475 305 l 475 102 l 271 102 m 271 678 l 271 882 l 475 882 l 475 678 l 271 678 z "},"ø":{"ha":868,"x_min":0,"x_max":760,"o":"m 462 609 q 380 624 424 624 q 226 561 290 624 q 163 407 163 497 l 163 380 q 198 260 163 313 l 462 609 m 562 526 l 298 178 q 380 163 336 163 q 533 226 470 163 q 597 380 597 290 l 597 407 q 562 526 597 473 m 96 127 q 0 380 0 233 l 0 407 q 111 675 0 564 q 380 787 222 787 q 562 741 481 787 l 597 787 l 760 787 l 663 660 q 760 407 760 553 l 760 380 q 648 111 760 222 q 380 0 537 0 q 197 45 279 0 l 163 0 l 0 0 l 96 127 z "},"ù":{"ha":868,"x_min":0,"x_max":760,"o":"m 624 841 l 760 705 l 760 380 q 648 111 760 222 q 380 0 537 0 q 111 111 222 0 q 0 380 0 222 l 0 787 l 163 787 l 163 380 q 226 226 163 290 q 380 163 290 163 q 533 226 470 163 q 597 380 597 290 l 597 841 l 488 841 l 109 1139 l 109 1166 l 271 1166 l 651 868 l 651 841 l 624 841 z "},"ú":{"ha":868,"x_min":0,"x_max":760,"o":"m 597 380 l 597 841 l 624 841 l 760 705 l 760 380 q 648 111 760 222 q 380 0 537 0 q 111 111 222 0 q 0 380 0 222 l 0 787 l 163 787 l 163 380 q 226 226 163 290 q 380 163 290 163 q 533 226 470 163 q 597 380 597 290 m 488 1166 l 651 1166 l 651 1139 l 271 841 l 109 841 l 109 868 l 488 1166 z "},"û":{"ha":868,"x_min":0,"x_max":760,"o":"m 624 841 l 760 705 l 760 380 q 648 111 760 222 q 380 0 537 0 q 111 111 222 0 q 0 380 0 222 l 0 787 l 163 787 l 163 380 q 226 226 163 290 q 380 163 290 163 q 533 226 470 163 q 597 380 597 290 l 597 841 l 488 841 l 380 1011 l 271 841 l 109 841 l 109 868 l 298 1166 l 461 1166 l 651 868 l 651 841 l 624 841 z "},"ü":{"ha":868,"x_min":0,"x_max":760,"o":"m 597 380 l 597 841 l 624 841 l 760 705 l 760 380 q 648 111 760 222 q 380 0 537 0 q 111 111 222 0 q 0 380 0 222 l 0 787 l 163 787 l 163 380 q 226 226 163 290 q 380 163 290 163 q 533 226 470 163 q 597 380 597 290 m 461 895 l 461 1058 l 624 1058 l 624 895 l 461 895 m 136 895 l 136 1058 l 298 1058 l 298 895 l 136 895 z "},"ý":{"ha":868,"x_min":0,"x_max":760,"o":"m 380 434 q 533 497 470 434 q 597 651 597 561 l 597 841 l 624 841 l 760 705 l 760 651 q 648 382 760 494 q 461 279 567 301 l 461 -109 l 434 -109 l 298 27 l 298 279 q 111 382 193 301 q 0 651 0 494 l 0 787 l 163 787 l 163 651 q 226 497 163 561 q 380 434 290 434 z "},"þ":{"ha":705,"x_min":0,"x_max":597,"o":"m 163 624 l 359 624 q 527 554 458 624 q 597 387 597 485 q 527 219 597 288 q 359 149 458 149 l 190 149 l 190 176 l 326 312 l 353 312 l 353 313 q 359 312 356 312 q 412 334 390 312 q 434 387 434 356 q 412 439 434 417 q 359 461 390 461 q 353 460 356 461 l 353 461 l 163 461 l 163 -109 l 136 -109 l 0 27 l 0 787 l 163 787 l 163 624 z "},"ÿ":{"ha":868,"x_min":0,"x_max":760,"o":"m 380 434 q 533 497 470 434 q 597 651 597 561 l 597 841 l 624 841 l 760 705 l 760 651 q 648 382 760 494 q 461 279 567 301 l 461 -109 l 434 -109 l 298 27 l 298 279 q 111 382 193 301 q 0 651 0 494 l 0 787 l 163 787 l 163 651 q 226 497 163 561 q 380 434 290 434 m 461 895 l 461 1058 l 624 1058 l 624 895 l 461 895 m 136 895 l 136 1058 l 298 1058 l 298 895 l 136 895 z "},"ı":{"ha":349,"x_min":13,"x_max":321,"o":"m 222 151 q 290 34 222 34 l 321 34 l 321 0 l 22 0 l 22 34 l 53 34 q 121 151 121 34 l 121 444 q 45 496 121 496 l 13 496 l 13 526 q 190 650 163 573 l 222 650 l 222 151 z "},"ˆ":{"ha":814,"x_min":0,"x_max":678,"o":"m 339 1264 l 203 1051 l 0 1051 l 0 1085 l 237 1458 l 441 1458 l 678 1085 l 678 1051 l 475 1051 l 339 1264 z "},"ˇ":{"ha":814,"x_min":0,"x_max":678,"o":"m 339 1245 l 475 1458 l 678 1458 l 678 1424 l 441 1051 l 237 1051 l 0 1424 l 0 1458 l 203 1458 l 339 1245 z "},"ˉ":{"ha":694,"x_min":172,"x_max":522,"o":"m 172 810 l 172 895 l 522 895 l 522 810 l 172 810 z "},"˘":{"ha":694,"x_min":149,"x_max":545,"o":"m 149 915 l 183 915 q 234 842 195 865 q 347 819 273 819 q 460 842 421 819 q 510 915 498 865 l 545 915 q 481 778 531 825 q 347 732 431 732 q 214 779 264 732 q 149 915 163 825 z "},"˙":{"ha":694,"x_min":277,"x_max":422,"o":"m 286 874 l 333 923 q 342 929 337 927 q 351 931 347 931 q 360 929 355 931 q 368 923 364 927 l 416 871 q 421 865 420 869 q 422 855 422 861 q 420 845 422 849 q 415 837 419 841 l 367 785 q 356 776 359 778 q 351 774 353 774 q 340 776 345 774 q 333 782 336 778 l 282 841 q 278 847 279 844 q 277 857 277 851 q 279 865 277 861 q 286 874 281 869 z "},"˚":{"ha":694,"x_min":227,"x_max":468,"o":"m 279 852 q 298 804 279 824 q 347 785 318 785 q 395 804 375 785 q 414 852 414 824 q 394 900 414 880 q 347 920 374 920 q 299 900 319 920 q 279 852 279 880 m 227 852 q 262 938 227 903 q 347 972 296 972 q 433 938 398 972 q 468 852 468 903 q 433 767 468 802 q 347 732 398 732 q 262 767 296 732 q 227 852 227 802 z "},"˛":{"ha":694,"x_min":250,"x_max":500,"o":"m 434 0 q 359 -81 386 -42 q 332 -157 332 -120 q 351 -208 332 -189 q 400 -227 369 -227 q 447 -217 427 -227 q 481 -184 467 -206 l 500 -195 q 438 -260 475 -237 q 357 -283 401 -283 q 280 -259 310 -283 q 250 -198 250 -235 q 291 -92 250 -146 q 401 0 332 -37 l 434 0 z "},"˜":{"ha":814,"x_min":0,"x_max":678,"o":"m 373 1356 q 475 1424 475 1356 l 678 1424 q 591 1240 678 1326 q 373 1153 505 1153 l 305 1153 q 203 1085 203 1153 l 0 1085 q 87 1270 0 1183 q 305 1356 174 1356 l 373 1356 z "},"˝":{"ha":694,"x_min":147,"x_max":547,"o":"m 147 732 l 245 917 q 276 960 261 947 q 307 972 290 972 q 340 959 326 972 q 353 927 353 945 q 346 903 353 916 q 326 876 339 890 l 186 732 l 147 732 m 340 732 l 438 917 q 469 960 454 947 q 500 972 484 972 q 533 959 519 972 q 547 927 547 945 q 539 903 547 916 q 519 876 532 890 l 380 732 l 340 732 z "},"–":{"ha":751,"x_min":38,"x_max":713,"o":"m 38 284 l 38 366 l 713 366 l 713 284 l 38 284 z "},"—":{"ha":1389,"x_min":0,"x_max":1389,"o":"m 0 284 l 0 366 l 1389 366 l 1389 284 l 0 284 z "},"‘":{"ha":339,"x_min":0,"x_max":203,"o":"m 0 814 l 170 983 l 203 983 l 203 644 l 0 644 l 0 814 z "},"’":{"ha":339,"x_min":0,"x_max":203,"o":"m 203 814 l 34 644 l 0 644 l 0 983 l 203 983 l 203 814 z "},"‚":{"ha":339,"x_min":0,"x_max":203,"o":"m 203 34 l 34 -136 l 0 -136 l 0 203 l 203 203 l 203 34 z "},"“":{"ha":610,"x_min":0,"x_max":475,"o":"m 271 814 l 441 983 l 475 983 l 475 644 l 271 644 l 271 814 m 0 814 l 170 983 l 203 983 l 203 644 l 0 644 l 0 814 z "},"”":{"ha":610,"x_min":0,"x_max":475,"o":"m 203 814 l 34 644 l 0 644 l 0 983 l 203 983 l 203 814 m 475 814 l 305 644 l 271 644 l 271 983 l 475 983 l 475 814 z "},"„":{"ha":610,"x_min":0,"x_max":475,"o":"m 203 34 l 34 -136 l 0 -136 l 0 203 l 203 203 l 203 34 m 475 34 l 305 -136 l 271 -136 l 271 203 l 475 203 l 475 34 z "},"†":{"ha":688,"x_min":48,"x_max":640,"o":"m 330 693 q 293 814 324 759 q 254 901 254 882 q 279 955 254 935 q 344 975 303 975 q 408 956 382 975 q 433 907 433 937 q 396 814 433 886 q 359 693 365 757 q 479 730 424 699 q 566 768 547 768 q 620 744 600 768 q 640 679 640 720 q 622 615 640 640 q 572 589 603 589 q 480 627 551 589 q 359 665 422 658 q 433 477 364 546 q 357 -183 361 165 l 332 -183 q 254 477 328 165 q 330 665 323 546 q 209 628 264 659 q 121 589 140 589 q 68 614 88 589 q 48 679 48 638 q 67 743 48 718 q 115 768 85 768 q 208 730 137 768 q 330 693 266 699 z "},"‡":{"ha":688,"x_min":47,"x_max":640,"o":"m 358 126 q 479 165 422 134 q 572 202 550 202 q 621 177 602 202 q 640 113 640 151 q 619 47 640 72 q 566 23 599 23 q 478 62 547 23 q 358 98 423 93 q 395 -23 364 35 q 433 -116 433 -94 q 407 -164 433 -146 q 343 -183 382 -183 q 278 -163 302 -183 q 254 -110 254 -143 q 292 -22 254 -91 q 329 98 323 33 q 208 61 265 92 q 115 23 136 23 q 66 48 85 23 q 47 113 47 74 q 67 178 47 153 q 121 202 87 202 q 208 163 140 202 q 329 126 264 133 q 254 396 323 279 q 329 665 323 512 q 208 628 264 659 q 121 589 140 589 q 67 614 87 589 q 47 679 47 638 q 66 743 47 718 q 115 768 85 768 q 208 730 136 768 q 329 693 265 699 q 292 814 323 759 q 254 901 254 882 q 278 955 254 935 q 343 975 302 975 q 407 956 382 975 q 433 907 433 937 q 395 814 433 886 q 358 693 364 757 q 478 730 423 699 q 566 768 547 768 q 619 744 599 768 q 640 679 640 720 q 621 615 640 640 q 572 589 602 589 q 479 627 550 589 q 358 665 422 658 q 433 396 363 512 q 358 126 363 279 z "},"•":{"ha":694,"x_min":146,"x_max":548,"o":"m 146 487 q 205 629 146 570 q 348 687 264 687 q 489 628 431 687 q 548 487 548 570 q 489 345 548 404 q 347 286 429 286 q 205 345 263 286 q 146 487 146 404 z "},"…":{"ha":882,"x_min":0,"x_max":746,"o":"m 0 0 l 0 203 l 203 203 l 203 0 l 0 0 m 271 0 l 271 203 l 475 203 l 475 0 l 271 0 m 543 0 l 543 203 l 746 203 l 746 0 l 543 0 z "},"‹":{"ha":814,"x_min":0,"x_max":678,"o":"m 0 509 l 475 983 l 678 983 l 678 949 l 220 492 l 678 34 l 678 0 l 475 0 l 0 475 l 0 509 z "},"›":{"ha":814,"x_min":0,"x_max":678,"o":"m 678 475 l 203 0 l 0 0 l 0 34 l 458 492 l 0 949 l 0 983 l 203 983 l 678 509 l 678 475 z "},"⁄":{"ha":814,"x_min":0,"x_max":678,"o":"m 475 983 l 678 983 l 678 949 l 203 0 l 0 0 l 0 34 l 475 983 z "},"₣":{"ha":1153,"x_min":0,"x_max":949,"o":"m 203 306 l 203 509 q 342 844 203 705 q 678 983 481 983 l 780 983 l 949 814 l 949 780 l 678 780 q 486 701 566 780 q 420 593 439 653 l 949 593 l 949 559 l 780 390 l 408 389 l 408 306 l 746 306 l 746 272 l 576 102 l 407 102 l 407 -136 l 373 -136 l 203 34 l 203 102 l 170 102 l 0 272 l 0 306 l 203 306 z "},"₤":{"ha":1119,"x_min":0,"x_max":848,"o":"m 210 593 q 342 844 235 736 q 678 983 481 983 l 848 814 l 848 780 l 678 780 q 486 701 566 780 q 420 593 439 653 l 848 593 l 848 559 l 678 390 l 407 390 l 407 203 l 678 203 l 848 34 l 848 0 l 0 0 l 0 34 l 170 203 l 203 203 l 203 390 l 0 390 l 0 424 l 153 576 l 170 593 l 210 593 z "},"₧":{"ha":1187,"x_min":0,"x_max":949,"o":"m 203 306 l 203 983 l 653 983 q 863 897 776 983 q 949 687 949 810 q 863 477 949 564 q 653 390 776 390 l 441 390 l 441 424 l 610 593 l 644 593 l 644 594 q 653 593 648 593 q 719 621 691 593 q 746 687 746 648 q 719 752 746 725 q 653 780 691 780 q 644 779 648 780 l 644 780 l 407 780 l 407 306 l 746 306 l 746 272 l 576 102 l 407 102 l 407 -136 l 373 -136 l 203 34 l 203 102 l 170 102 l 0 272 l 0 306 l 203 306 z "},"€":{"ha":1085,"x_min":0,"x_max":949,"o":"m 544 238 q 678 203 604 203 l 780 203 l 949 34 l 949 0 l 678 0 q 342 139 481 0 q 266 237 296 185 l 170 237 l 0 408 l 0 441 l 205 441 q 203 475 203 458 l 203 509 l 170 509 l 0 679 l 0 713 l 248 713 q 342 844 282 784 q 678 983 481 983 l 780 983 l 949 814 l 949 780 l 678 780 q 499 713 574 780 l 746 713 l 746 679 l 576 509 l 407 509 l 407 475 q 409 441 407 458 l 746 441 l 746 408 l 576 238 l 544 238 z "},"№":{"ha":1051,"x_min":0,"x_max":916,"o":"m 271 814 q 232 910 271 870 q 136 949 192 949 l 102 949 l 102 559 l 0 559 l 0 1051 l 136 1051 q 303 982 234 1051 q 373 814 373 912 l 373 559 l 271 559 l 271 814 m 441 814 q 510 982 441 912 q 678 1051 580 1051 q 846 982 777 1051 q 916 814 916 912 l 916 797 q 846 629 916 699 q 678 559 777 559 q 510 629 580 559 q 441 797 441 699 l 441 814 m 814 814 q 774 910 814 870 q 678 949 734 949 q 582 910 622 949 q 543 814 543 870 l 543 797 q 582 701 543 741 q 678 661 622 661 q 774 701 734 661 q 814 797 814 741 l 814 814 z "},"™":{"ha":1051,"x_min":0,"x_max":916,"o":"m 1 1034 l 0 1051 l 373 1051 l 373 1034 l 288 949 l 237 949 l 237 492 l 220 492 l 136 576 l 136 949 l 85 949 l 1 1034 m 916 559 l 814 559 l 814 814 q 774 910 814 870 q 729 940 754 930 l 729 678 l 712 678 l 627 763 l 627 940 q 583 910 603 930 q 543 814 543 870 l 543 492 l 526 492 l 441 576 l 441 814 q 510 982 441 912 q 678 1051 580 1051 q 846 982 777 1051 q 916 814 916 912 l 916 559 z "},"∂":{"ha":1119,"x_min":0,"x_max":1017,"o":"m 136 0 q 0 136 0 0 l 0 882 q 136 1017 0 1017 l 882 1017 q 1017 882 1017 1017 l 1017 136 q 882 0 1017 0 l 136 0 m 882 17 q 1000 136 1000 17 l 1000 882 q 882 1000 1000 1000 l 136 1000 q 17 882 18 1000 l 17 136 q 136 17 18 17 l 882 17 z "},"∆":{"ha":1119,"x_min":0,"x_max":1017,"o":"m 136 0 q 0 136 0 0 l 0 882 q 136 1017 0 1017 l 882 1017 q 1017 882 1017 1017 l 1017 136 q 882 0 1017 0 l 136 0 m 882 17 q 1000 136 1000 17 l 1000 882 q 882 1000 1000 1000 l 136 1000 q 17 882 18 1000 l 17 136 q 136 17 18 17 l 882 17 z "},"∏":{"ha":1119,"x_min":0,"x_max":1017,"o":"m 136 0 q 0 136 0 0 l 0 882 q 136 1017 0 1017 l 882 1017 q 1017 882 1017 1017 l 1017 136 q 882 0 1017 0 l 136 0 m 882 17 q 1000 136 1000 17 l 1000 882 q 882 1000 1000 1000 l 136 1000 q 17 882 18 1000 l 17 136 q 136 17 18 17 l 882 17 z "},"∑":{"ha":1119,"x_min":0,"x_max":1017,"o":"m 136 0 q 0 136 0 0 l 0 882 q 136 1017 0 1017 l 882 1017 q 1017 882 1017 1017 l 1017 136 q 882 0 1017 0 l 136 0 m 882 17 q 1000 136 1000 17 l 1000 882 q 882 1000 1000 1000 l 136 1000 q 17 882 18 1000 l 17 136 q 136 17 18 17 l 882 17 z "},"−":{"ha":688,"x_min":59,"x_max":629,"o":"m 59 439 l 59 534 l 628 534 l 629 533 l 629 439 l 59 439 z "},"√":{"ha":1119,"x_min":0,"x_max":1017,"o":"m 136 0 q 0 136 0 0 l 0 882 q 136 1017 0 1017 l 882 1017 q 1017 882 1017 1017 l 1017 136 q 882 0 1017 0 l 136 0 m 882 17 q 1000 136 1000 17 l 1000 882 q 882 1000 1000 1000 l 136 1000 q 17 882 18 1000 l 17 136 q 136 17 18 17 l 882 17 z "},"∞":{"ha":1119,"x_min":0,"x_max":1017,"o":"m 136 0 q 0 136 0 0 l 0 882 q 136 1017 0 1017 l 882 1017 q 1017 882 1017 1017 l 1017 136 q 882 0 1017 0 l 136 0 m 882 17 q 1000 136 1000 17 l 1000 882 q 882 1000 1000 1000 l 136 1000 q 17 882 18 1000 l 17 136 q 136 17 18 17 l 882 17 z "},"∫":{"ha":1119,"x_min":0,"x_max":1017,"o":"m 136 0 q 0 136 0 0 l 0 882 q 136 1017 0 1017 l 882 1017 q 1017 882 1017 1017 l 1017 136 q 882 0 1017 0 l 136 0 m 882 17 q 1000 136 1000 17 l 1000 882 q 882 1000 1000 1000 l 136 1000 q 17 882 18 1000 l 17 136 q 136 17 18 17 l 882 17 z "},"≈":{"ha":1119,"x_min":0,"x_max":1017,"o":"m 136 0 q 0 136 0 0 l 0 882 q 136 1017 0 1017 l 882 1017 q 1017 882 1017 1017 l 1017 136 q 882 0 1017 0 l 136 0 m 882 17 q 1000 136 1000 17 l 1000 882 q 882 1000 1000 1000 l 136 1000 q 17 882 18 1000 l 17 136 q 136 17 18 17 l 882 17 z "},"≤":{"ha":1119,"x_min":0,"x_max":1017,"o":"m 136 0 q 0 136 0 0 l 0 882 q 136 1017 0 1017 l 882 1017 q 1017 882 1017 1017 l 1017 136 q 882 0 1017 0 l 136 0 m 882 17 q 1000 136 1000 17 l 1000 882 q 882 1000 1000 1000 l 136 1000 q 17 882 18 1000 l 17 136 q 136 17 18 17 l 882 17 z "},"≥":{"ha":1119,"x_min":0,"x_max":1017,"o":"m 136 0 q 0 136 0 0 l 0 882 q 136 1017 0 1017 l 882 1017 q 1017 882 1017 1017 l 1017 136 q 882 0 1017 0 l 136 0 m 882 17 q 1000 136 1000 17 l 1000 882 q 882 1000 1000 1000 l 136 1000 q 17 882 18 1000 l 17 136 q 136 17 18 17 l 882 17 z "},"":{"ha":728,"x_min":0,"x_max":0,"o":""},"":{"ha":733,"x_min":0,"x_max":0,"o":""}}}
